<svg width="533" height="426" viewBox="0 0 533 426" fill="none" xmlns="http://www.w3.org/2000/svg">
<path d="M533 377.638H0V377.905H533V377.638Z" fill="#E4E4E4"/>
<path d="M146.746 384.898H111.44V385.164H146.746V384.898Z" fill="#E4E4E4"/>
<path d="M225.875 394.662H182.435V394.929H225.875V394.662Z" fill="#E4E4E4"/>
<path d="M110.374 391.326H55.9224V391.592H110.374V391.326Z" fill="#E4E4E4"/>
<path d="M479.593 386.689H380.306V386.955H479.593V386.689Z" fill="#E4E4E4"/>
<path d="M370.819 386.689H364.071V386.955H370.819V386.689Z" fill="#E4E4E4"/>
<path d="M340.523 391.187H295.506V391.454H340.523V391.187Z" fill="#E4E4E4"/>
<path d="M75.3342 152.393H167.82C167.82 152.393 162.842 140.816 146.213 144.419C146.213 144.419 142.716 131.254 130.031 133.077C130.031 133.077 119.531 121.692 104.212 126.105C88.8938 130.518 90.2156 144.419 90.2156 144.419C90.2156 144.419 78.884 141.455 75.3342 152.393Z" fill="#FAFAFA"/>
<path d="M322.881 81.866H230.405C230.405 81.866 235.373 70.2786 252.002 73.8817C252.002 73.8817 255.499 60.7166 268.195 62.5395C268.195 62.5395 278.695 51.1652 294.003 55.5785C309.311 59.9917 308.01 73.8817 308.01 73.8817C308.01 73.8817 319.384 70.9289 322.881 81.866Z" fill="#FAFAFA"/>
<path d="M391.083 78.8493H461.834C461.834 78.8493 459.126 69.138 448.893 72.336C448.893 72.336 451.025 59.2668 443.477 57.7531C435.93 56.2394 433.532 66.1852 433.532 66.1852C431.804 64.2279 429.565 62.7916 427.066 62.0383C424.567 61.2849 421.907 61.2444 419.386 61.9212C416.907 62.5667 414.648 63.8688 412.847 65.6905C411.046 67.5121 409.769 69.7859 409.152 72.272C409.152 72.272 396.552 65.0552 391.083 78.8493Z" fill="#FAFAFA"/>
<path d="M135.062 206.833H48.9933V377.361H135.062V206.833Z" fill="#E6E6E6"/>
<path d="M119.413 206.833H48.9933V377.361H119.413V206.833Z" fill="#F0F0F0"/>
<path d="M136.075 206.833H47.1385V209.615H136.075V206.833Z" fill="#E0E0E0"/>
<path d="M136.075 201.269H47.1385V204.051H136.075V201.269Z" fill="#E0E0E0"/>
<path d="M134.209 204.051H48.9933V206.833H134.209V204.051Z" fill="#F0F0F0"/>
<path d="M68.9062 216.864H55.6772V230.296H68.9062V216.864Z" fill="#E6E6E6"/>
<path d="M68.8956 216.864H56.8391V230.296H68.8956V216.864Z" fill="#EFEFEF"/>
<path d="M88.9364 216.864H75.7073V230.296H88.9364V216.864Z" fill="#E6E6E6"/>
<path d="M88.9257 216.864H76.8693V230.296H88.9257V216.864Z" fill="#EFEFEF"/>
<path d="M108.966 216.864H95.7374V230.296H108.966V216.864Z" fill="#E6E6E6"/>
<path d="M108.956 216.864H96.8994V230.296H108.956V216.864Z" fill="#EFEFEF"/>
<path d="M68.9062 236.639H55.6772V250.07H68.9062V236.639Z" fill="#E6E6E6"/>
<path d="M68.8956 236.639H56.8391V250.07H68.8956V236.639Z" fill="#EFEFEF"/>
<path d="M88.9364 236.639H75.7073V250.07H88.9364V236.639Z" fill="#E6E6E6"/>
<path d="M88.9257 236.639H76.8693V250.07H88.9257V236.639Z" fill="#EFEFEF"/>
<path d="M108.966 236.639H95.7374V250.07H108.966V236.639Z" fill="#E6E6E6"/>
<path d="M108.956 236.639H96.8994V250.07H108.956V236.639Z" fill="#EFEFEF"/>
<path d="M68.9062 272.851H55.6772V286.282H68.9062V272.851Z" fill="#E6E6E6"/>
<path d="M68.8956 272.851H56.8391V286.282H68.8956V272.851Z" fill="#EFEFEF"/>
<path d="M88.9364 272.851H75.7073V286.282H88.9364V272.851Z" fill="#E6E6E6"/>
<path d="M88.9257 272.851H76.8693V286.282H88.9257V272.851Z" fill="#EFEFEF"/>
<path d="M108.966 272.851H95.7374V286.282H108.966V272.851Z" fill="#E6E6E6"/>
<path d="M108.956 272.851H96.8994V286.282H108.956V272.851Z" fill="#EFEFEF"/>
<path d="M68.9062 292.625H55.6772V306.057H68.9062V292.625Z" fill="#E6E6E6"/>
<path d="M68.8956 292.625H56.8391V306.057H68.8956V292.625Z" fill="#EFEFEF"/>
<path d="M88.9364 292.625H75.7073V306.057H88.9364V292.625Z" fill="#E6E6E6"/>
<path d="M88.9257 292.625H76.8693V306.057H88.9257V292.625Z" fill="#EFEFEF"/>
<path d="M108.966 292.625H95.7374V306.057H108.966V292.625Z" fill="#E6E6E6"/>
<path d="M108.956 292.625H96.8994V306.057H108.956V292.625Z" fill="#EFEFEF"/>
<path d="M68.9062 332.866H55.6772V346.298H68.9062V332.866Z" fill="#E6E6E6"/>
<path d="M68.8956 332.866H56.8391V346.298H68.8956V332.866Z" fill="#EFEFEF"/>
<path d="M88.9364 332.866H75.7073V346.298H88.9364V332.866Z" fill="#E6E6E6"/>
<path d="M88.9257 332.866H76.8693V346.298H88.9257V332.866Z" fill="#EFEFEF"/>
<path d="M108.966 332.866H95.7374V346.298H108.966V332.866Z" fill="#E6E6E6"/>
<path d="M108.956 332.866H96.8994V346.298H108.956V332.866Z" fill="#EFEFEF"/>
<path d="M68.9062 352.641H55.6772V366.072H68.9062V352.641Z" fill="#E6E6E6"/>
<path d="M68.8956 352.641H56.8391V366.072H68.8956V352.641Z" fill="#EFEFEF"/>
<path d="M88.9364 352.641H75.7073V366.072H88.9364V352.641Z" fill="#E6E6E6"/>
<path d="M88.9257 352.641H76.8693V366.072H88.9257V352.641Z" fill="#EFEFEF"/>
<path d="M108.966 352.641H95.7374V366.072H108.966V352.641Z" fill="#E6E6E6"/>
<path d="M108.956 352.641H96.8994V366.072H108.956V352.641Z" fill="#EFEFEF"/>
<path d="M135.062 259.515H48.9933V260.762H135.062V259.515Z" fill="#E0E0E0"/>
<path d="M135.062 321.407H48.9933V322.654H135.062V321.407Z" fill="#E0E0E0"/>
<path d="M473.517 171.645H388.482V378.566H473.517V171.645Z" fill="#E0E0E0"/>
<path d="M449.298 171.645H388.482V378.566H449.298V171.645Z" fill="#F0F0F0"/>
<path d="M417.382 188.647H394.75V199.638H417.382V188.647Z" fill="#E6E6E6"/>
<path d="M417.382 188.647H396.254V199.638H417.382V188.647Z" fill="#EFEFEF"/>
<path d="M443.563 188.647H420.931V199.638H443.563V188.647Z" fill="#E6E6E6"/>
<path d="M443.563 188.647H422.434V199.638H443.563V188.647Z" fill="#EFEFEF"/>
<path d="M417.382 209.328H394.75V220.318H417.382V209.328Z" fill="#E6E6E6"/>
<path d="M417.382 209.328H396.254V220.318H417.382V209.328Z" fill="#EFEFEF"/>
<path d="M443.563 209.328H420.931V220.318H443.563V209.328Z" fill="#E6E6E6"/>
<path d="M443.563 209.328H422.434V220.318H443.563V209.328Z" fill="#EFEFEF"/>
<path d="M417.382 235.754H394.75V246.744H417.382V235.754Z" fill="#E6E6E6"/>
<path d="M417.382 235.754H396.254V246.744H417.382V235.754Z" fill="#EFEFEF"/>
<path d="M443.563 235.754H420.931V246.744H443.563V235.754Z" fill="#E6E6E6"/>
<path d="M443.563 235.754H422.434V246.744H443.563V235.754Z" fill="#EFEFEF"/>
<path d="M417.382 250.944H394.75V261.935H417.382V250.944Z" fill="#E6E6E6"/>
<path d="M417.382 250.944H396.254V261.935H417.382V250.944Z" fill="#EFEFEF"/>
<path d="M443.563 250.944H420.931V261.935H443.563V250.944Z" fill="#E6E6E6"/>
<path d="M443.563 250.944H422.434V261.935H443.563V250.944Z" fill="#EFEFEF"/>
<path d="M417.382 275.899H394.75V286.89H417.382V275.899Z" fill="#E6E6E6"/>
<path d="M417.382 275.899H396.254V286.89H417.382V275.899Z" fill="#EFEFEF"/>
<path d="M443.563 275.899H420.931V286.89H443.563V275.899Z" fill="#E6E6E6"/>
<path d="M443.563 275.899H422.434V286.89H443.563V275.899Z" fill="#EFEFEF"/>
<path d="M417.382 291.079H394.75V302.07H417.382V291.079Z" fill="#E6E6E6"/>
<path d="M417.382 291.079H396.254V302.07H417.382V291.079Z" fill="#EFEFEF"/>
<path d="M443.563 291.079H420.931V302.07H443.563V291.079Z" fill="#E6E6E6"/>
<path d="M443.563 291.079H422.434V302.07H443.563V291.079Z" fill="#EFEFEF"/>
<path d="M417.382 318.241H394.75V329.231H417.382V318.241Z" fill="#E6E6E6"/>
<path d="M417.382 318.241H396.254V329.231H417.382V318.241Z" fill="#EFEFEF"/>
<path d="M443.563 318.241H420.931V329.231H443.563V318.241Z" fill="#E6E6E6"/>
<path d="M443.563 318.241H422.434V329.231H443.563V318.241Z" fill="#EFEFEF"/>
<path d="M417.382 338.292H394.75V349.283H417.382V338.292Z" fill="#E6E6E6"/>
<path d="M417.382 338.292H396.254V349.283H417.382V338.292Z" fill="#EFEFEF"/>
<path d="M443.563 338.292H420.931V349.283H443.563V338.292Z" fill="#E6E6E6"/>
<path d="M443.563 338.292H422.434V349.283H443.563V338.292Z" fill="#EFEFEF"/>
<path opacity="0.05" d="M473.517 227.087H388.482V228.974H473.517V227.087Z" fill="black"/>
<path opacity="0.05" d="M473.517 267.968H388.482V269.855H473.517V267.968Z" fill="black"/>
<path opacity="0.05" d="M473.517 309.212H388.482V311.099H473.517V309.212Z" fill="black"/>
<path d="M473.517 165.526H384.474V172.135H473.517V165.526Z" fill="#E0E0E0"/>
<path opacity="0.05" d="M473.517 165.526H453.167V172.135H473.517V165.526Z" fill="black"/>
<path d="M267.374 125.188H171.242V375.037H267.374V125.188Z" fill="#E6E6E6"/>
<path d="M231.802 125.188H135.659V375.037H231.802V125.188Z" fill="#F0F0F0"/>
<path d="M223.412 142.148H144.049V154.876H223.412V142.148Z" fill="#E6E6E6"/>
<path d="M223.412 142.148H147.129V154.876H223.412V142.148Z" fill="#EFEFEF"/>
<path d="M223.412 163.575H144.049V176.303H223.412V163.575Z" fill="#E6E6E6"/>
<path d="M223.412 163.575H147.129V176.303H223.412V163.575Z" fill="#EFEFEF"/>
<path d="M223.412 185.833H144.049V198.561H223.412V185.833Z" fill="#E6E6E6"/>
<path d="M223.412 185.833H147.129V198.561H223.412V185.833Z" fill="#EFEFEF"/>
<path d="M223.412 208.102H144.049V220.83H223.412V208.102Z" fill="#E6E6E6"/>
<path d="M223.412 208.102H147.129V220.83H223.412V208.102Z" fill="#EFEFEF"/>
<path d="M223.412 230.36H144.049V243.088H223.412V230.36Z" fill="#E6E6E6"/>
<path d="M223.412 230.36H147.129V243.088H223.412V230.36Z" fill="#EFEFEF"/>
<path d="M223.412 252.629H144.049V265.357H223.412V252.629Z" fill="#E6E6E6"/>
<path d="M223.412 252.629H147.129V265.357H223.412V252.629Z" fill="#EFEFEF"/>
<path d="M223.412 277.168H144.049V289.896H223.412V277.168Z" fill="#E6E6E6"/>
<path d="M223.412 277.168H147.129V289.896H223.412V277.168Z" fill="#EFEFEF"/>
<path d="M223.412 301.697H144.049V314.425H223.412V301.697Z" fill="#E6E6E6"/>
<path d="M223.412 301.697H147.129V314.425H223.412V301.697Z" fill="#EFEFEF"/>
<path d="M223.412 326.236H144.049V338.964H223.412V326.236Z" fill="#E6E6E6"/>
<path d="M223.412 326.236H147.129V338.964H223.412V326.236Z" fill="#EFEFEF"/>
<path d="M223.412 350.775H144.049V363.503H223.412V350.775Z" fill="#E6E6E6"/>
<path d="M223.412 350.775H147.129V363.503H223.412V350.775Z" fill="#EFEFEF"/>
<path d="M269.879 122.673H132.941V128.77H269.879V122.673Z" fill="#EFEFEF"/>
<path d="M269.879 111.671H132.941V117.769H269.879V111.671Z" fill="#EFEFEF"/>
<path d="M265.327 116.575H135.659V122.673H265.327V116.575Z" fill="#F0F0F0"/>
<path d="M267.385 142.148H240.596V154.876H267.385V142.148Z" fill="#E0E0E0"/>
<path d="M267.385 163.095H240.596V175.823H267.385V163.095Z" fill="#E0E0E0"/>
<path d="M267.385 184.042H240.596V196.77H267.385V184.042Z" fill="#E0E0E0"/>
<path d="M267.385 208.091H240.596V220.819H267.385V208.091Z" fill="#E0E0E0"/>
<path d="M267.385 230.36H240.596V243.088H267.385V230.36Z" fill="#E0E0E0"/>
<path d="M267.385 252.629H240.596V265.357H267.385V252.629Z" fill="#E0E0E0"/>
<path d="M267.385 277.157H240.596V289.885H267.385V277.157Z" fill="#E0E0E0"/>
<path d="M267.385 301.697H240.596V314.425H267.385V301.697Z" fill="#E0E0E0"/>
<path d="M267.385 326.236H240.596V338.964H267.385V326.236Z" fill="#E0E0E0"/>
<path d="M267.385 350.775H240.596V363.503H267.385V350.775Z" fill="#E0E0E0"/>
<path d="M390.956 212.504H380.381V229.049H390.956V212.504Z" fill="#E0E0E0"/>
<path d="M390.956 239.581H380.381V256.125H390.956V239.581Z" fill="#E0E0E0"/>
<path d="M390.956 265.9H380.381V282.445H390.956V265.9Z" fill="#E0E0E0"/>
<path d="M390.956 293.723H380.381V310.267H390.956V293.723Z" fill="#E0E0E0"/>
<path d="M390.956 320.799H380.381V337.344H390.956V320.799Z" fill="#E0E0E0"/>
<path d="M390.956 195.875H279.676V365.113H390.956V195.875Z" fill="#E6E6E6"/>
<path d="M372.162 195.875H279.686V365.113H372.162V195.875Z" fill="#F0F0F0"/>
<path d="M363.197 212.515H288.001V229.059H363.197V212.515Z" fill="#E4E4E4"/>
<path d="M363.197 239.581H288.001V256.125H363.197V239.581Z" fill="#E4E4E4"/>
<path d="M363.197 266.657H288.001V283.201H363.197V266.657Z" fill="#E4E4E4"/>
<path d="M363.197 293.723H288.001V310.267H363.197V293.723Z" fill="#E4E4E4"/>
<path d="M363.197 320.799H288.001V337.344H363.197V320.799Z" fill="#E4E4E4"/>
<path d="M363.197 212.515H290.773V229.059H363.197V212.515Z" fill="#EFEFEF"/>
<path d="M363.197 239.581H290.773V256.125H363.197V239.581Z" fill="#EFEFEF"/>
<path d="M363.197 266.657H290.773V283.201H363.197V266.657Z" fill="#EFEFEF"/>
<path d="M363.197 293.723H290.773V310.267H363.197V293.723Z" fill="#EFEFEF"/>
<path d="M363.197 320.799H290.773V337.344H363.197V320.799Z" fill="#EFEFEF"/>
<path d="M266.5 425.779C380.65 425.779 473.187 420.376 473.187 413.712C473.187 407.047 380.65 401.645 266.5 401.645C152.35 401.645 59.8132 407.047 59.8132 413.712C59.8132 420.376 152.35 425.779 266.5 425.779Z" fill="#EFEFEF"/>
<path d="M148.952 413.712H144.688" stroke="#D42C07" stroke-linecap="round" stroke-linejoin="round"/>
<path d="M136.629 413.712H27.7373" stroke="#D42C07" stroke-linecap="round" stroke-linejoin="round" stroke-dasharray="7.57 7.57"/>
<path d="M23.7078 413.712H19.4438" stroke="#D42C07" stroke-linecap="round" stroke-linejoin="round"/>
<path d="M274.108 240L271.179 193.75L253 182.092C253 182.092 258.945 161.871 270.32 158.444C281.695 155.017 306.506 147.159 321.551 151.062C336.596 154.966 334.868 172.09 332.282 184.794L329.385 185.457C329.385 185.457 328.934 235.517 328.913 239.824L274.108 240Z" fill="#263238"/>
<path d="M269.332 119.07C268.971 118.582 268.664 118.055 268.417 117.499C268.059 116.714 267.493 114.934 268.308 114.287C267.69 113.976 267.164 113.508 266.782 112.931C266.4 112.354 266.175 111.687 266.13 110.996C266.2 109.644 267.284 109.673 268.368 109.664C266.551 108.652 265.186 106.989 264.549 105.01C264.419 104.703 264.357 104.371 264.369 104.037C264.381 103.704 264.467 103.377 264.619 103.081C264.997 102.683 265.345 103.2 267.602 103.468C270.015 103.716 272.449 103.264 274.612 102.166C276.391 101.22 278.278 100.492 280.231 99.998C282.215 99.4686 284.247 99.1355 286.297 99.0036C290.612 98.7749 302.495 100.704 303.51 108.868C309.227 110.041 309.615 119.369 307.815 123.227C304.494 130.327 301.411 134.991 299.681 140.132C299.393 139.913 280.509 127.99 276.213 124.679C274.596 123.446 272.982 122.206 271.371 120.96C270.603 120.432 269.917 119.795 269.332 119.07V119.07Z" fill="#37474F"/>
<path d="M305.469 135.04C301.948 137.477 299.801 134.941 299.801 134.941L299.254 152.462C291.816 161.412 272.852 159.294 281.404 150.255V146.048C279.642 146.078 277.881 145.941 276.144 145.641C275.081 145.41 274.069 144.986 273.161 144.388C271.138 143.053 269.712 140.985 269.183 138.62C268.205 134.493 267.811 130.249 268.01 126.011C268.169 120.92 268.905 114.367 270.705 111.016C273.847 108.43 282.17 108.52 289.727 111.016C289.79 113.065 290.485 115.045 291.716 116.684C292.465 117.69 293.439 118.507 294.56 119.071C294.63 122.78 294.749 123.784 295.375 125.445C295.724 126.439 296.43 127.831 298.359 127.215C299.254 126.916 299.98 124.977 300.944 123.704C302.237 121.984 306.145 121.298 307.905 125.166C308.639 126.851 308.798 128.731 308.358 130.516C307.917 132.3 306.902 133.89 305.469 135.04V135.04Z" fill="#FFC1A7"/>
<path d="M281.384 146.048C285.243 145.79 292.154 144.577 294.222 142.29C296.29 140.003 298.011 134.633 298.011 134.633C298.011 134.633 297.016 140.699 295.445 143.304C293.874 145.909 290.473 146.854 288.037 147.51C285.85 147.979 283.628 148.272 281.394 148.385L281.384 146.048Z" fill="#E9A091"/>
<path d="M284.348 118.146L288.166 119.399C288.322 118.876 288.27 118.314 288.022 117.829C287.774 117.344 287.348 116.973 286.834 116.793C286.582 116.717 286.317 116.692 286.055 116.719C285.793 116.746 285.539 116.824 285.308 116.95C285.077 117.076 284.873 117.246 284.708 117.452C284.543 117.657 284.421 117.893 284.348 118.146Z" fill="#263238"/>
<path d="M274.046 118.355L270.068 119.11C269.98 118.574 270.102 118.024 270.41 117.575C270.717 117.127 271.186 116.815 271.719 116.704C271.98 116.655 272.249 116.66 272.509 116.717C272.769 116.775 273.014 116.883 273.231 117.037C273.448 117.191 273.632 117.387 273.772 117.613C273.912 117.84 274.005 118.092 274.046 118.355V118.355Z" fill="#263238"/>
<path d="M284.198 134.722L279.117 136.462C279.369 137.144 279.875 137.702 280.53 138.019C281.184 138.336 281.936 138.388 282.627 138.163C282.96 138.046 283.267 137.863 283.527 137.624C283.788 137.386 283.998 137.098 284.145 136.777C284.291 136.456 284.372 136.108 284.381 135.755C284.39 135.402 284.328 135.051 284.198 134.722Z" fill="#B16668"/>
<path d="M284.009 135.776C283.32 135.752 282.648 136 282.14 136.467C281.632 136.934 281.328 137.583 281.295 138.272C281.739 138.357 282.198 138.326 282.627 138.183C283.122 138.013 283.554 137.697 283.865 137.276C284.176 136.855 284.351 136.349 284.367 135.826L284.009 135.776Z" fill="#E9A091"/>
<path d="M286.774 124.838C286.766 125.162 286.662 125.476 286.476 125.741C286.29 126.007 286.029 126.211 285.727 126.328C285.425 126.445 285.095 126.47 284.778 126.4C284.462 126.33 284.173 126.167 283.949 125.933C283.725 125.699 283.575 125.404 283.518 125.085C283.461 124.766 283.5 124.438 283.63 124.141C283.76 123.844 283.975 123.592 284.248 123.417C284.52 123.242 284.839 123.152 285.163 123.157C285.379 123.161 285.593 123.208 285.791 123.295C285.989 123.381 286.168 123.506 286.318 123.663C286.468 123.819 286.585 124.003 286.663 124.205C286.742 124.406 286.779 124.622 286.774 124.838V124.838Z" fill="#263238"/>
<path d="M274.016 124.331C274.008 124.655 273.904 124.969 273.718 125.234C273.532 125.499 273.271 125.703 272.969 125.821C272.667 125.938 272.337 125.963 272.02 125.893C271.704 125.822 271.415 125.66 271.191 125.426C270.967 125.192 270.817 124.897 270.76 124.578C270.703 124.259 270.742 123.93 270.872 123.633C271.002 123.337 271.217 123.085 271.49 122.91C271.762 122.735 272.081 122.645 272.405 122.65C272.621 122.654 272.835 122.701 273.033 122.787C273.231 122.874 273.41 122.999 273.56 123.155C273.71 123.312 273.827 123.496 273.905 123.698C273.984 123.899 274.021 124.115 274.016 124.331V124.331Z" fill="#263238"/>
<path d="M272.624 129.73L272.723 129.78L278.759 132.564L279.634 126.151C279.276 124.947 279.097 123.814 277.964 123.774H277.814H277.675L276.731 124.888L272.624 129.73Z" fill="#E9A091"/>
<path d="M402.688 158.544L333.365 159.694L334.837 248.49L404.161 247.341L402.688 158.544Z" fill="#D42C07"/>
<path opacity="0.3" d="M365.138 165.325L343.722 165.754L343.841 171.723L365.257 171.295L365.138 165.325Z" fill="white"/>
<path opacity="0.3" d="M365.774 234.375L344.361 234.73L344.46 240.698L365.873 240.343L365.774 234.375Z" fill="white"/>
<path d="M241.854 357.118C243.709 358.536 280.944 354.528 271.318 288.468C271.318 288.468 288.982 292.955 290.879 292.657C290.879 292.657 316.794 332.387 297.926 352.065C279.057 371.743 250.936 372.948 250.936 372.948L241.854 357.118Z" fill="#D42C07"/>
<path opacity="0.3" d="M241.854 357.118C243.709 358.536 280.944 354.528 271.318 288.468C271.318 288.468 288.982 292.955 290.879 292.657C290.879 292.657 316.794 332.387 297.926 352.065C279.057 371.743 250.936 372.948 250.936 372.948L241.854 357.118Z" fill="black"/>
<path d="M285.593 298.999C285.701 298.999 273.892 299.201 269.936 294.834C265.98 290.468 263.306 282.661 270.499 277.336C277.693 272.01 319.929 249.006 339.819 247.195C359.708 245.384 381 256.78 381 256.78L354.96 273.885L298.889 285.941L285.593 298.999Z" fill="#263238"/>
<path d="M249.167 346.714L250.137 356.265L261.607 355.295L259.88 345.477L249.167 346.714Z" fill="#FFC1A7"/>
<path d="M246.939 355.572L263.579 355.338L264.762 363.738C264.762 363.738 249.177 363.951 242.771 363.098C236.364 362.245 237.366 358.909 237.366 358.909C237.366 358.909 244.871 359.09 246.939 355.572Z" fill="#263238"/>
<path d="M392.158 379.749C394.642 355.331 379.9 333.831 359.231 331.728C338.561 329.625 319.791 347.715 317.306 372.133C314.821 396.551 329.563 418.051 350.233 420.154C370.903 422.257 389.673 404.168 392.158 379.749Z" fill="#263238"/>
<path d="M328.584 240.007C328.584 240.007 330.311 279.63 307.264 280.76C284.217 281.89 259.454 279.364 259.454 279.364L266.713 350.562L245.105 351.894C245.105 351.894 229.595 291.495 227.154 276.315C224.713 261.135 226.834 250.401 242.856 243.663C258.878 236.926 328.584 240.007 328.584 240.007Z" fill="#D42C07"/>
<path d="M199.608 365.721L228.316 282.338L266.692 239.975C266.692 239.975 233.198 240.103 217.102 249.356C201.005 258.609 200.408 269.727 197.455 282.956C194.502 296.185 182.659 358.802 182.659 358.802L199.608 365.721Z" fill="#D42C07"/>
<path opacity="0.7" d="M328.584 240.007C328.584 240.007 292.915 238.419 266.756 240.007C266.756 240.007 233.262 240.135 217.165 249.388C201.069 258.641 200.408 269.727 197.455 282.956C194.502 296.185 182.659 358.802 182.659 358.802L199.608 365.721L228.316 282.338C233.145 305.449 245.105 351.852 245.105 351.852L266.713 350.562L259.443 279.406C259.443 279.406 284.196 281.933 307.253 280.803C330.311 279.673 328.584 240.007 328.584 240.007Z" fill="black"/>
<path d="M269.698 175.738L256.448 177.348C256.448 177.348 254.145 201.706 252.002 206.439C252.002 206.439 211.249 212.035 194.556 211.556L186.081 217.312L185.782 227.322L194.087 227.567L196.762 221.224C196.762 221.224 202.369 220.979 203.67 217.824C203.67 217.824 246.971 228.281 262.918 216.342C262.94 216.353 272.555 202.228 269.698 175.738Z" fill="#FFC1A7"/>
<path d="M273.28 106.906C273.28 106.906 266.969 102.706 269.751 99.6789C272.533 96.6515 289.579 102.408 302.318 109.465C302.318 109.465 273.141 89.9463 265.21 96.1185C258.654 101.225 273.194 108.314 272.757 108.303L273.28 106.906Z" fill="#D42C07"/>
<path d="M181.977 246.595C181.977 246.595 149.613 291.367 176.263 360.284" stroke="#263238" stroke-linecap="round" stroke-linejoin="round"/>
<path d="M224.691 269.855C224.691 269.855 224.691 269.94 224.691 270.111C224.691 270.281 224.691 270.377 224.691 270.569V270.676C224.306 274.988 223.594 279.264 222.559 283.468C221.088 289.683 219.138 295.599 217.528 300.353C210.706 320.554 211.494 342.322 211.494 342.322C209.234 339.508 205.098 337.503 199.928 336.096C181.103 330.926 149.144 333.698 149.144 333.698C142.876 311.706 145.115 277.285 151.351 258.012C157.587 238.739 174.877 243.088 174.877 243.088C174.877 243.088 193.127 243.621 195.419 243.376C199.614 242.867 203.859 242.953 208.03 243.631C222.122 246.211 225.512 257.351 224.691 269.855Z" fill="#D42C07"/>
<path d="M365.201 353.76C333.221 382.627 271.489 385.655 225.555 382.457L199.822 336.16L189.396 317.409L222.89 272.264L224.659 269.887C224.659 269.887 224.659 269.972 224.659 270.143C224.659 270.314 224.659 270.409 224.659 270.601V270.708C224.201 278.756 221.238 343.345 244.913 359.186L245.105 359.325C248.309 361.395 252.026 362.532 255.84 362.608C299.279 363.866 298.064 307.176 287.02 295.034L362.397 279.886C362.397 279.886 377.279 317.356 365.201 353.76Z" fill="#D42C07"/>
<path d="M282.868 282.84C282.868 282.84 275.165 288.777 279.138 296.744C283.112 304.71 321.413 289.241 336.493 286.424C351.572 283.607 369.021 280.854 376.525 279.418C384.03 277.982 383.38 257.98 377.246 256.21C371.112 254.439 311.028 264.306 301.06 269.725C294.478 273.439 288.375 277.839 282.868 282.84V282.84Z" fill="#263238"/>
<path d="M311.271 107.274C311.249 109.909 310.731 112.519 309.742 114.976L274.317 98.4537C275.785 96.8194 277.544 95.4507 279.51 94.4121C281.606 93.2555 283.886 92.4397 286.257 91.9973C288.772 91.5337 291.346 91.4479 293.888 91.7431C306.843 93.1793 311.337 102.788 311.271 107.274Z" fill="#D42C07"/>
<path opacity="0.2" d="M273.338 109.315C273.338 109.315 265.541 104.338 268.978 100.75C270.506 99.1582 275.076 99.4867 281.252 101.179C285.224 102.205 289.115 103.501 292.894 105.058C298.32 107.319 304.088 110.212 309.211 112.347C309.211 112.347 273.166 89.2165 263.368 96.5307C255.269 102.582 272.113 110.426 272.705 110.957L272.995 109.934L273.338 109.315Z" fill="black"/>
<path d="M280 100.952C280 100.952 269.21 96.0924 266.206 98.8433C263.201 101.594 266.349 106.836 269.782 109.542L272.536 110L274.158 103.734L278.355 103.077L280 100.952Z" fill="#37474F"/>
<path opacity="0.3" d="M295.282 94.4981L292.889 97.92L282.49 93.5494C284.244 92.5794 286.152 91.8951 288.136 91.524L295.282 94.4981Z" fill="white"/>
<path d="M197.743 230.317C197.317 237.705 194.119 243.749 190.196 245.241C189.517 245.503 188.79 245.615 188.064 245.572C183.224 245.295 179.706 238.035 180.197 229.368C180.687 220.702 185.015 213.901 189.855 214.178C191.827 214.285 193.564 215.553 194.918 217.589C196.912 220.51 198.031 225.179 197.743 230.317Z" fill="#EFEFEF"/>
<path d="M197.743 230.317C197.317 237.705 194.119 243.749 190.196 245.241C185.719 244.985 182.467 238.28 182.926 230.317C183.384 222.354 187.371 216.033 191.848 216.289C193.002 216.375 194.093 216.844 194.95 217.621V217.621C196.912 220.51 198.031 225.179 197.743 230.317Z" fill="white"/>
<path d="M370.968 335.307C363.418 329.557 334.205 323.912 334.205 323.912C316.458 323.912 300.88 341.228 298.731 364.22C296.973 382.923 304.591 399.899 316.869 407.641C316.869 407.641 317.894 408.107 319.613 408.838C326.118 411.623 342.624 418.369 352.381 419.852" fill="#263238"/>
<path opacity="0.3" d="M392.158 379.749C394.642 355.331 379.9 333.831 359.231 331.728C338.561 329.625 319.791 347.715 317.306 372.133C314.821 396.551 329.563 418.051 350.233 420.154C370.903 422.257 389.673 404.168 392.158 379.749Z" fill="black"/>
<path d="M226.438 378.328C228.923 353.91 214.181 332.41 193.511 330.307C172.841 328.203 154.071 346.293 151.586 370.712C149.102 395.13 163.844 416.63 184.513 418.733C205.183 420.836 223.953 402.746 226.438 378.328Z" fill="#263238"/>
<path d="M212.134 338.491L192.619 418.374C189.772 418.823 186.877 418.906 184.007 418.618H183.789C180.046 417.682 181.715 418.693 177.961 417.48C168.411 414.405 154.538 408.967 154.538 408.967C139.837 401.997 131.531 385.046 133.55 365.679C135.995 342.216 153.261 324.69 173.584 326.126C173.584 326.126 183.233 327.861 193.165 330.383C197.53 331.447 201.896 332.713 205.487 334.033C207.865 335.275 210.094 336.771 212.134 338.491V338.491Z" fill="#263238"/>
<path opacity="0.3" d="M226.44 378.278C224.308 399.332 210.055 415.673 192.925 418.434C190.144 418.885 187.316 418.967 184.514 418.679H184.301C180.398 418.258 176.604 417.127 173.108 415.343C158.706 408.041 149.592 390.303 151.585 370.688C154.069 346.287 172.799 328.219 193.458 330.287H193.511C197.706 330.71 201.776 331.953 205.493 333.943V333.943C207.815 335.191 209.993 336.693 211.985 338.42C222.186 347.289 228.124 362.171 226.44 378.278Z" fill="black"/>
<path d="M221.248 350.242C220.623 349.245 219.91 348.307 219.116 347.439C214.351 340.936 203.457 338.506 196.325 339.081C190.858 339.615 185.609 341.498 181.049 344.56C175.847 347.929 172.127 353.088 166.968 356.628C157.182 363.386 142.332 363.194 132.504 356.233C131.95 355.839 131.422 355.408 130.926 354.943C129.924 353.901 129.256 352.583 129.007 351.159C128.631 349.381 128.768 347.532 129.402 345.829C131.534 339.838 138.644 334.572 143.132 331.363C152.23 324.944 162.932 321.176 174.046 320.48C205.738 318.294 219.255 345.36 221.248 350.242Z" fill="#D42C07"/>
<path opacity="0.3" d="M219.052 351.095C212.241 341.266 203.499 338.506 196.368 339.081C190.901 339.615 185.652 341.497 181.092 344.56C175.89 347.929 172.17 353.088 167.01 356.628C157.224 363.386 142.375 363.194 132.546 356.233C131.992 355.839 131.465 355.408 130.969 354.943C129.967 353.901 129.299 352.583 129.05 351.159C128.674 349.381 128.811 347.532 129.444 345.829C132.738 349.635 142.332 358.802 155.327 354.357C171.53 348.76 175.485 332.131 192.807 332.28C206.569 332.44 215.044 343.1 219.052 351.095Z" fill="black"/>
<g opacity="0.3">
<path opacity="0.3" d="M147.769 328.432C152.391 325.147 157.592 322.764 163.098 321.407C168.609 320.004 174.317 319.536 179.983 320.021C185.641 320.566 191.181 321.975 196.41 324.2L198.351 325.053L200.248 326.001C201.527 326.598 202.732 327.345 203.968 328.027C205.205 328.709 206.346 329.551 207.529 330.308C208.712 331.065 209.821 331.95 210.951 332.792C206.302 329.677 201.339 327.058 196.144 324.978C190.959 322.898 185.496 321.594 179.93 321.108C174.376 320.577 168.773 320.937 163.332 322.174C160.601 322.78 157.924 323.607 155.327 324.648C152.691 325.662 150.16 326.929 147.769 328.432V328.432Z" fill="black"/>
</g>
<g opacity="0.3">
<path opacity="0.3" d="M182.286 320.81C180.957 316.364 180.159 311.777 179.909 307.144C179.557 302.528 179.482 297.891 179.578 293.286C179.674 288.681 179.994 284.033 180.42 279.428L181.199 272.541C181.54 270.25 181.838 267.958 182.265 265.676L181.295 279.534L180.911 286.442C180.847 288.745 180.708 291.047 180.698 293.35C180.516 297.955 180.602 302.56 180.772 307.208C180.847 309.51 181.028 311.802 181.263 314.094C181.45 316.354 181.792 318.597 182.286 320.81V320.81Z" fill="black"/>
</g>
<path opacity="0.3" d="M244.86 359.09C222.602 344.774 221.717 307.837 222.474 283.468C222.613 279.279 222.783 275.473 222.911 272.2C223.145 268.925 223.145 265.637 222.911 262.361C220.662 245.625 207.87 243.61 207.87 243.61H207.923C222.09 246.211 225.48 257.351 224.659 269.855C224.659 269.855 224.659 269.94 224.659 270.111C224.659 270.282 224.659 270.377 224.659 270.569V270.676C224.18 278.724 221.216 343.313 244.86 359.09Z" fill="black"/>
<path opacity="0.2" d="M243.048 232.94C241.182 234.89 217.059 229.891 212.848 232.129C211.068 233.067 210.29 236.393 208.499 240.039C203.467 248.034 196.389 249.292 195.952 249.356C204.395 242.96 206.751 227.567 202.561 217.834C198.372 208.102 183.373 210.628 182.521 210.916C185.078 209.792 187.829 209.173 190.622 209.093C198.734 208.667 208.627 210.948 211.398 216.086C217.027 226.565 241.161 224.209 243.378 226.959C245.596 229.71 244.913 230.989 243.048 232.94Z" fill="black"/>
<path d="M224.158 223.633C222.692 226.34 222.107 229.437 222.485 232.492L242.92 234.794C243.965 233.585 244.737 232.165 245.184 230.631C245.631 229.097 245.742 227.485 245.51 225.904C245.51 225.904 225.267 223.868 224.158 223.633Z" fill="#263238"/>
<path d="M162.107 222.877C162.107 222.877 160.071 218.549 162.512 215.809C157.054 215.319 153.675 214.743 150.157 214.231C149.634 215.82 149.379 217.344 151.223 219.764C153.067 222.184 162.107 222.877 162.107 222.877Z" fill="#263238"/>
<path d="M150.754 249.964C147.215 255.731 144.187 264.962 143.921 279.705" stroke="#D42C07" stroke-linecap="round" stroke-linejoin="round"/>
<path d="M162.405 240.455C159.83 241.052 157.463 242.33 155.551 244.154" stroke="#D42C07" stroke-linecap="round" stroke-linejoin="round"/>
<path d="M331.996 183.2L316.774 184.83C316.774 184.83 314.12 209.37 311.66 214.143C311.66 214.143 264.848 219.793 245.658 219.296L235.924 225.095L235.586 235.191L245.127 235.434L248.203 229.085C248.203 229.085 254.644 228.841 256.127 225.656C256.127 225.656 305.87 236.238 324.192 224.174C324.18 224.132 335.241 209.899 331.996 183.2Z" fill="#FFC1A7"/>
<path opacity="0.2" d="M211.835 375.08C211.452 388.49 202.668 399.108 192.21 398.809C190.805 398.767 189.413 398.527 188.074 398.095C179.696 395.43 173.662 385.548 173.992 373.982C174.323 362.789 180.495 353.536 188.607 350.967C190.228 350.446 191.926 350.204 193.628 350.253C204.086 350.562 212.23 361.712 211.835 375.08Z" fill="#FAFAFA"/>
<path d="M202.209 375.08C201.879 386.529 195.813 395.942 188.074 398.127C179.696 395.462 173.662 385.58 173.992 374.014C174.323 362.821 180.495 353.568 188.607 350.999C196.666 353.184 202.54 363.226 202.209 375.08Z" fill="#263238"/>
<path opacity="0.2" d="M376.085 376.146C375.69 389.556 366.907 400.184 356.46 399.875C355.054 399.839 353.66 399.598 352.324 399.161C343.934 396.496 337.901 386.625 338.242 375.048C338.562 363.866 344.734 354.602 352.846 352.033C354.467 351.512 356.165 351.27 357.867 351.319C368.324 351.628 376.469 362.757 376.085 376.146Z" fill="#FAFAFA"/>
<path d="M366.459 376.146C366.118 387.584 360.063 396.997 352.324 399.182C343.934 396.517 337.901 386.646 338.242 375.069C338.562 363.887 344.734 354.623 352.846 352.054C360.916 354.24 366.8 364.281 366.459 376.146Z" fill="#263238"/>
<path d="M392.565 340.819C392.746 354.005 372.674 362.736 339.084 368.236C330.03 369.828 320.777 369.936 311.688 368.556C296.764 366.094 289.472 359.783 289.472 359.783C289.472 359.783 293.267 314.211 330.822 308.434C356.406 304.511 375.658 314.83 385.423 325.948C390.017 331.172 392.512 336.597 392.565 340.819Z" fill="#D42C07"/>
<path opacity="0.3" d="M392.565 340.819C392.746 354.005 372.674 362.736 339.084 368.236C330.03 369.828 320.777 369.936 311.688 368.556C313.297 356.18 320.525 323.72 351.94 320.352C366.192 318.817 377.193 321.695 385.423 325.948C390.017 331.172 392.512 336.597 392.565 340.819Z" fill="black"/>
<g opacity="0.3">
<path opacity="0.3" d="M291.647 359.985C292.338 353.782 293.817 347.692 296.049 341.863C298.244 335.974 301.274 330.431 305.047 325.404C306.953 322.906 309.094 320.596 311.443 318.507C313.769 316.385 316.334 314.539 319.086 313.007C324.561 309.919 330.628 308.026 336.888 307.453C333.821 307.967 330.803 308.744 327.87 309.777C326.388 310.225 324.991 310.917 323.606 311.504C322.215 312.17 320.86 312.906 319.544 313.71C318.201 314.478 316.964 315.405 315.696 316.269C314.427 317.132 313.255 318.156 312.135 319.232C309.859 321.301 307.785 323.582 305.942 326.044C302.197 330.974 299.145 336.393 296.87 342.151C295.689 345.019 294.671 347.952 293.822 350.935C292.917 353.906 292.191 356.928 291.647 359.985V359.985Z" fill="black"/>
</g>
<path d="M241.246 344.934L243.464 352.46L266.713 350.519L267.022 339.998L241.246 344.934Z" fill="#D42C07"/>
<path d="M379.667 293.606L465.426 291.527" stroke="#D42C07" stroke-linecap="round" stroke-linejoin="round"/>
<path d="M493.768 282.21L506.509 281.901" stroke="#D42C07" stroke-linecap="round" stroke-linejoin="round"/>
<path d="M420.768 283.98L483.993 282.445" stroke="#D42C07" stroke-linecap="round" stroke-linejoin="round"/>
<path d="M465.015 310.459L518 309.18" stroke="#D42C07" stroke-linecap="round" stroke-linejoin="round"/>
<path d="M432.259 311.259L455.347 310.694" stroke="#D42C07" stroke-linecap="round" stroke-linejoin="round"/>
<path d="M380.412 160.814L373.1 160.961V169.25L373.207 248.226H380.412L380.562 160.961L380.412 160.814Z" fill="#CE5252"/>
<path d="M381.978 118.174C382.042 118.174 381.914 118.686 381.978 119.602C382.102 120.895 382.444 122.156 382.991 123.333C383.858 125.097 384.533 126.948 385.006 128.855C385.34 131.311 384.722 133.802 383.279 135.816C381.914 138.002 380.283 139.803 379.217 141.69C378.698 142.569 378.293 143.511 378.013 144.494C377.797 145.346 377.736 146.231 377.831 147.105C377.937 148.392 378.475 149.605 379.356 150.548C379.712 150.861 380.085 151.153 380.475 151.423C380.475 151.423 380.347 151.423 380.113 151.305C379.786 151.147 379.481 150.946 379.206 150.708C378.218 149.77 377.591 148.513 377.437 147.159C377.305 146.231 377.352 145.286 377.576 144.376C377.842 143.339 378.247 142.342 378.78 141.413C379.846 139.462 381.488 137.629 382.81 135.496C384.186 133.597 384.795 131.248 384.515 128.919C384.061 127.045 383.433 125.218 382.639 123.461C382.109 122.238 381.816 120.925 381.776 119.592C381.775 119.233 381.814 118.876 381.893 118.526C381.902 118.405 381.931 118.286 381.978 118.174V118.174Z" fill="#263238"/>
<path d="M348.922 112.845C348.986 112.845 348.847 113.356 348.922 114.273C349.051 115.564 349.393 116.825 349.934 118.004C350.801 119.769 351.48 121.62 351.96 123.526C352.286 125.983 351.665 128.472 350.222 130.487C348.858 132.672 347.237 134.474 346.161 136.361C345.642 137.239 345.241 138.181 344.967 139.164C344.743 140.019 344.678 140.908 344.775 141.787C344.886 143.069 345.423 144.277 346.299 145.219C346.655 145.532 347.029 145.823 347.419 146.093C347.419 146.093 347.291 146.093 347.067 145.976C346.733 145.825 346.424 145.623 346.15 145.379C345.165 144.439 344.542 143.182 344.391 141.829C344.261 140.902 344.305 139.958 344.519 139.047C344.784 138.015 345.189 137.025 345.724 136.105C346.79 134.154 348.421 132.32 349.753 130.199C351.126 128.294 351.732 125.942 351.448 123.611C351.004 121.735 350.375 119.906 349.572 118.153C349.042 116.93 348.749 115.617 348.709 114.284C348.708 113.925 348.747 113.568 348.826 113.218C348.858 112.962 348.9 112.834 348.922 112.845Z" fill="#263238"/>
<path d="M365.935 117.108C365.999 117.108 365.871 117.62 365.935 118.536C366.083 119.834 366.443 121.098 367.001 122.278C367.865 124.039 368.541 125.886 369.016 127.789C369.342 130.246 368.721 132.735 367.278 134.75C365.914 136.936 364.294 138.737 363.228 140.624C362.706 141.502 362.301 142.445 362.023 143.428C361.802 144.283 361.741 145.172 361.842 146.05C361.95 147.331 362.482 148.539 363.355 149.482C363.714 149.797 364.091 150.089 364.485 150.357C364.485 150.357 364.347 150.357 364.123 150.239C363.792 150.083 363.483 149.882 363.206 149.642C362.221 148.703 361.598 147.446 361.447 146.093C361.317 145.165 361.361 144.222 361.575 143.31C361.847 142.285 362.252 141.299 362.78 140.379C363.846 138.417 365.487 136.584 366.809 134.462C368.18 132.557 368.789 130.207 368.515 127.875C368.062 125.999 367.431 124.171 366.628 122.417C366.103 121.191 365.81 119.879 365.765 118.547C365.766 118.188 365.809 117.83 365.893 117.481C365.871 117.225 365.935 117.108 365.935 117.108Z" fill="#263238"/>
<path d="M89.173 110.316C113.017 110.316 132.346 89.4262 132.346 63.6578C132.346 37.8894 113.017 17 89.173 17C65.3292 17 46 37.8894 46 63.6578C46 89.4262 65.3292 110.316 89.173 110.316Z" fill="#96AB7C"/>
<path d="M89.1728 100.553C107.182 100.553 121.781 84.0343 121.781 63.6578C121.781 43.2814 107.182 26.763 89.1728 26.763C71.1639 26.763 56.5649 43.2814 56.5649 63.6578C56.5649 84.0343 71.1639 100.553 89.1728 100.553Z" stroke="white" stroke-width="2" stroke-miterlimit="10"/>
<path d="M90.5281 32.3774V38.5727" stroke="white" stroke-width="2" stroke-linecap="round" stroke-linejoin="round"/>
<path d="M91.9387 89.1302V95.3254" stroke="white" stroke-width="2" stroke-linecap="round" stroke-linejoin="round"/>
<path d="M61.6815 62.4409H67.9043" stroke="white" stroke-width="2" stroke-linecap="round" stroke-linejoin="round"/>
<path d="M111.631 62.4686H117.854" stroke="white" stroke-width="2" stroke-linecap="round" stroke-linejoin="round"/>
<path d="M90.5005 62.4409L90.5282 43.3574" stroke="white" stroke-width="2" stroke-linecap="round" stroke-linejoin="round"/>
<path d="M91.7174 63.6855L105.214 77.1823" stroke="white" stroke-width="2" stroke-linecap="round" stroke-linejoin="round"/>
<path d="M93.5152 62.4686C93.5152 63.0648 93.3384 63.6477 93.0072 64.1434C92.6759 64.6392 92.205 65.0256 91.6542 65.2537C91.1033 65.4819 90.4972 65.5416 89.9124 65.4253C89.3277 65.309 88.7905 65.0219 88.3689 64.6002C87.9473 64.1786 87.6601 63.6415 87.5438 63.0567C87.4275 62.4719 87.4872 61.8657 87.7154 61.3149C87.9436 60.764 88.33 60.2932 88.8257 59.962C89.3215 59.6307 89.9043 59.4539 90.5006 59.4539C90.8975 59.4502 91.2912 59.5257 91.6586 59.6759C92.026 59.8261 92.3598 60.048 92.6404 60.3286C92.9211 60.6093 93.143 60.9431 93.2932 61.3105C93.4434 61.678 93.5189 62.0716 93.5152 62.4686V62.4686Z" fill="#A1C572"/>
</svg>
