<svg xmlns="http://www.w3.org/2000/svg" xmlns:xlink="http://www.w3.org/1999/xlink" viewBox="0 0 500 500"><defs><clipPath id="freepik--clip-path--inject-32"><path d="M207.85,279.79c.43,9.86-15.13,32.65,4.08,45.86,2.26,19.91,5.09,39.51,10.4,72.16H322.57c-4.12-28.24-3.22-60.42,10-124a25.33,25.33,0,0,0-22.26-30.39c-4-.4-8.24-.74-12.58-1-16.86-.81-30.69-1.35-45.52,0-4.91.45-10,1.07-14.84,1.75A34.41,34.41,0,0,0,207.85,279.79Z" style="fill:none"></path></clipPath></defs><g id="freepik--Table--inject-32"><rect x="56.11" y="395.26" width="387.78" height="12.67" style="fill:#897171"></rect><rect x="56.11" y="400.88" width="387.78" height="1.43" style="opacity:0.2"></rect><polygon points="428.33 412.88 71.67 412.88 61.67 407.93 438.33 407.93 428.33 412.88" style="fill:#897171"></polygon><polygon points="428.33 412.88 71.67 412.88 61.67 407.93 438.33 407.93 428.33 412.88" style="fill:#fff;opacity:0.5"></polygon><path d="M124.34,360.35c-3.46-3.21-13.76,2-13.14-4.54s-6.32-1.8-7.28-8.2,8.35-4.54,4.41-9.5-.8-11.44,5.24-11.51,4.33,7.69,9.53,4.17c5.72-3.87,10.44-.45,10.46,4.71s4.79,2.25,6.72,7.66c2.54,7.12-9.11,7.89-6.8,12.12S130.05,365.63,124.34,360.35Z" style="fill:#897171"></path><path d="M124.34,360.35c-3.46-3.21-13.76,2-13.14-4.54s-6.32-1.8-7.28-8.2,8.35-4.54,4.41-9.5-.8-11.44,5.24-11.51,4.33,7.69,9.53,4.17c5.72-3.87,10.44-.45,10.46,4.71s4.79,2.25,6.72,7.66c2.54,7.12-9.11,7.89-6.8,12.12S130.05,365.63,124.34,360.35Z" style="fill:#fff;opacity:0.4"></path><path d="M123.72,357.76c-3.87-4.93-11.5,2.37-11-3.16s-7-2.2-6.33-7.64,8.85-5.65,4.33-8.57-1.9-9.73,3.23-9.79,4.29,7.07,8.7,4.09c4.84-3.28,8.84-.38,8.86,4s4.49,2,6.89,6.28c4.16,7.34-9.84,6.17-6.23,11.19C134.58,357.46,128.71,364.11,123.72,357.76Z" style="fill:#897171"></path><path d="M123.35,356.26c-3.16-4.31-9.87,1.7-9.26-3s-5.89-2.07-5.18-6.69,7.69-4.57,3.93-7.18-1.35-8.35,3-8.26,3.45,6.15,7.3,3.73c4.22-2.66,7.55-.07,7.44,3.65s3.77,1.87,5.7,5.54c3.34,6.38-8.56,5-5.62,9.37C132.62,356.31,127.43,361.82,123.35,356.26Z" style="fill:#fff;opacity:0.4"></path><path d="M105.59,351.62c.48,9,8.85,26.73,29.67,20.58C134.08,359.91,123.58,351.85,105.59,351.62Z" style="fill:#897171"></path><path d="M105.59,351.62c.48,9,8.85,26.73,29.67,20.58C134.08,359.91,123.58,351.85,105.59,351.62Z" style="opacity:0.30000000000000004"></path><path d="M108.42,353.93a53.59,53.59,0,0,0,7.21,5.44c2.54,1.67,5.14,3.27,7.73,4.86s5.25,3.11,7.87,4.65l7.83,4.69h0a.4.4,0,0,1-.32.73,44.5,44.5,0,0,1-8.51-3.69c-2.7-1.48-5.32-3.09-7.92-4.73s-5.13-3.4-7.6-5.24c-1.24-.92-2.46-1.86-3.63-2.89a23.62,23.62,0,0,1-3.3-3.33.41.41,0,0,1,.07-.56.42.42,0,0,1,.53,0Z" style="fill:#897171"></path><path d="M115.15,360.4h-.06a.39.39,0,0,1-.33-.45,8.61,8.61,0,0,0-.51-5.05.4.4,0,0,1,.16-.54.39.39,0,0,1,.54.16,9.12,9.12,0,0,1,.6,5.55A.41.41,0,0,1,115.15,360.4Z" style="fill:#897171"></path><path d="M114.47,367.34a.4.4,0,0,1,0-.8s4.82-.44,6.2-2.86a.4.4,0,1,1,.69.4c-1.59,2.78-6.61,3.24-6.82,3.26Z" style="fill:#897171"></path><path d="M126.32,367.57A.39.39,0,0,1,126,367c1.63-3.05-1-7.19-1-7.24a.39.39,0,0,1,.12-.55.4.4,0,0,1,.55.12c.12.19,2.92,4.58,1.07,8A.38.38,0,0,1,126.32,367.57Z" style="fill:#897171"></path><path d="M127.08,371.74a.4.4,0,0,1-.4-.38.41.41,0,0,1,.38-.42,7.38,7.38,0,0,0,3.52-1.47.4.4,0,1,1,.47.65,8.17,8.17,0,0,1-4,1.62Z" style="fill:#897171"></path><path d="M165.62,336.79c-12.32.59-36.68,11.95-28.4,40.52C154.06,375.76,165.18,361.43,165.62,336.79Z" style="fill:#897171"></path><path d="M165.62,336.79c-12.32.59-36.68,11.95-28.4,40.52C154.06,375.76,165.18,361.43,165.62,336.79Z" style="opacity:0.30000000000000004"></path><path d="M162.44,340.65A69.6,69.6,0,0,0,155,350.5c-2.31,3.47-4.54,7-6.73,10.56s-4.29,7.16-6.42,10.75l-6.48,10.68v0a.55.55,0,0,1-.76.18.54.54,0,0,1-.24-.62,60.49,60.49,0,0,1,5.12-11.63c2-3.69,4.26-7.27,6.52-10.82s4.68-7,7.22-10.39c1.27-1.69,2.58-3.35,4-4.94a33.13,33.13,0,0,1,4.59-4.5.54.54,0,0,1,.76.1.55.55,0,0,1,0,.72Z" style="fill:#897171"></path><path d="M156.62,350.6a16.08,16.08,0,0,1-2.64-.23.54.54,0,1,1,.18-1.07,11.69,11.69,0,0,0,6.92-.67.55.55,0,0,1,.52,1A11.3,11.3,0,0,1,156.62,350.6Z" style="fill:#897171"></path><path d="M148.72,358.33a.53.53,0,0,1-.27-.08c-3.8-2.18-4.4-9.07-4.43-9.36a.55.55,0,0,1,.5-.59.55.55,0,0,1,.59.5c0,.07.58,6.61,3.88,8.51a.54.54,0,0,1,.2.74A.53.53,0,0,1,148.72,358.33Z" style="fill:#897171"></path><path d="M147.59,366.44a7.64,7.64,0,0,1-3.68-.88.53.53,0,0,1-.22-.74.54.54,0,0,1,.74-.22c4.17,2.25,9.86-1.33,9.91-1.37a.55.55,0,0,1,.76.17.54.54,0,0,1-.17.75A15.43,15.43,0,0,1,147.59,366.44Z" style="fill:#897171"></path><path d="M140.55,371.78a.53.53,0,0,1-.44-.23,11.15,11.15,0,0,1-2.2-5.42.55.55,0,0,1,.52-.57.53.53,0,0,1,.57.51,10.24,10.24,0,0,0,2,4.84.54.54,0,0,1-.12.76A.56.56,0,0,1,140.55,371.78Z" style="fill:#897171"></path><path d="M124,353.46c10,9.5,35.42.2,33-18.78C143.23,341.16,124,353.46,124,353.46Z" style="fill:#897171"></path><path d="M127.6,351.19c8,6.4,26.26-.48,25.1-14.4C143.46,341.51,133,347.85,127.6,351.19Z" style="fill:#fff;opacity:0.2"></path><path d="M150.22,389.23c-9.41,10-35.36,2.18-34-16.91C130.31,378,150.22,389.23,150.22,389.23Z" style="fill:#897171"></path><path d="M146.48,387.16c-7.6,6.84-26.25,1-25.87-13C130.11,378.38,140.91,384.13,146.48,387.16Z" style="fill:#fff;opacity:0.2"></path><path d="M175.68,350.06c-2.94,2.27.5,10.05-4.84,9.13s-2,4.42-7.4,4.64S160.39,357.5,156,360s-9.53-.25-9.09-4.6,6.73-2.56,4.25-6.55c-2.72-4.4.5-7.54,4.76-7.19s2.27-3.28,6.9-4.27c6.1-1.32,5.77,7.12,9.46,5.77S180.53,346.34,175.68,350.06Z" style="fill:#897171"></path><path d="M175.68,350.06c-2.94,2.27.5,10.05-4.84,9.13s-2,4.42-7.4,4.64S160.39,357.5,156,360s-9.53-.25-9.09-4.6,6.73-2.56,4.25-6.55c-2.72-4.4.5-7.54,4.76-7.19s2.27-3.28,6.9-4.27c6.1-1.32,5.77,7.12,9.46,5.77S180.53,346.34,175.68,350.06Z" style="fill:#fff;opacity:0.4"></path><path d="M173.49,350.33c-4.4,2.42,1,8.44-3.53,7.66s-2.4,4.86-6.85,4-3.94-6.77-6.72-3.73-8.21.66-7.84-3,6.21-2.57,4.11-6c-2.3-3.73.43-6.39,4-6.09s2.06-3.08,5.77-4.5c6.42-2.46,4.29,7.52,8.74,5.29C174.15,342.49,179.16,347.19,173.49,350.33Z" style="fill:#897171"></path><path d="M172.22,350.48c-3.83,2,.58,7.22-3.26,6.45s-2.2,4.08-6,3.24-3.14-5.87-5.62-3.35-7,.37-6.58-2.77,5.38-2,3.7-5c-1.85-3.23.57-5.43,3.64-5.09s1.85-2.57,5.06-3.7c5.55-1.94,3.41,6.52,7.28,4.72C173,343.82,177.15,348,172.22,350.48Z" style="fill:#fff;opacity:0.4"></path><path d="M138.32,378.4c3.7-2.86.68-11.95,6.77-11.15s2.9-5.39,9.17-6,2.76,7.38,8.22,4.18,11-.24,10,5-8.13,3.43-5.75,8.06c2.61,5.09-1.52,9-6.43,8.84s-3,4-8.54,5.49c-7.25,1.91-5.81-8.17-10.26-6.35S132.23,383.12,138.32,378.4Z" style="fill:#897171"></path><path d="M138.32,378.4c3.7-2.86.68-11.95,6.77-11.15s2.9-5.39,9.17-6,2.76,7.38,8.22,4.18,11-.24,10,5-8.13,3.43-5.75,8.06c2.61,5.09-1.52,9-6.43,8.84s-3,4-8.54,5.49c-7.25,1.91-5.81-8.17-10.26-6.35S132.23,383.12,138.32,378.4Z" style="fill:#fff;opacity:0.4"></path><path d="M140.91,378c5.41-3.15-.11-10,5.05-9.34s3.39-5.93,8.45-5.16,3.73,7.85,7.35,4.07,9.61-1.25,8.72,3.17-7.54,3.42-5.53,7.34c2.22,4.31-1.29,7.64-5.44,7.49s-2.78,3.79-7.26,5.69c-7.77,3.3-4-8.73-9.49-5.81C139.16,387.35,133.93,382,140.91,378Z" style="fill:#897171"></path><path d="M142.4,377.71c4.7-2.55.23-8.58,4.59-7.87s3.06-5,7.33-4.21,2.91,6.82,6.1,3.67,8.19-.83,7.29,2.94-6.5,2.74-4.91,6.15c1.74,3.75-1.34,6.51-4.86,6.28s-2.48,3.17-6.34,4.69c-6.69,2.63-3.15-7.58-7.87-5.22C140.62,385.7,136.35,381,142.4,377.71Z" style="fill:#fff;opacity:0.4"></path><path d="M103.85,349.39v7.09a38.89,38.89,0,0,0,38.78,38.78h0a38.89,38.89,0,0,0,38.78-38.78v-7.09Z" style="fill:#897171;opacity:0.30000000000000004"></path><path d="M182.36,349.39H102.9a2.25,2.25,0,0,1-2.24-2.24h0a2.25,2.25,0,0,1,2.24-2.24h79.46a2.25,2.25,0,0,1,2.24,2.24h0A2.25,2.25,0,0,1,182.36,349.39Z" style="fill:#897171;opacity:0.5"></path><ellipse cx="127.56" cy="373.35" rx="11.72" ry="21.38" transform="translate(-237.97 224.85) rotate(-49.03)" style="fill:#fff;opacity:0.30000000000000004"></ellipse><path d="M153.19,374c-3,1.31-6.75-.66-8.39-4.41s-.55-7.84,2.45-9.15,6.75.66,8.39,4.4S156.18,372.64,153.19,374Z" style="fill:#fff;opacity:0.30000000000000004"></path><path d="M420.33,354.86H383.22L387,392.92a2.59,2.59,0,0,0,2.58,2.34H414a2.59,2.59,0,0,0,2.58-2.34Z" style="fill:#897171;opacity:0.30000000000000004"></path><path d="M390.41,386.9l-2.77-28s7.33,4.3,14.43,2.21a59,59,0,0,1,13.85-2.21l-2.78,28a4.84,4.84,0,0,1-4.82,4.36H395.23A4.85,4.85,0,0,1,390.41,386.9Z" style="fill:#897171;opacity:0.30000000000000004"></path><path d="M401.48,361.07a58.88,58.88,0,0,0-13.84-2.21s7.13,4.17,14.14,2.28Z" style="fill:#897171;opacity:0.5"></path><path d="M420.77,355.86h-38a1.45,1.45,0,0,1-1.44-1.36l-.93-16.93a1.44,1.44,0,0,1,1.43-1.52H421.7a1.45,1.45,0,0,1,1.44,1.52l-.94,16.93A1.44,1.44,0,0,1,420.77,355.86Z" style="fill:#897171;opacity:0.30000000000000004"></path></g></svg>