<svg width="130" height="80" viewBox="0 0 130 80" fill="none" xmlns="http://www.w3.org/2000/svg">
<path d="M107.01 1.34256L107.01 1.34282L107.01 1.34302L107.01 1.34312C107.01 1.34318 107.01 1.34324 106.646 1L106.304 0.63516C106.037 0.885251 105.802 1.15741 105.603 1.44814L105.598 1.45427L105.594 1.46053C105.068 2.27967 104.786 3.19013 104.782 4.12153C104.767 5.52695 105.406 6.86384 106.535 7.90012L106.537 7.90157C107.09 8.40481 107.722 8.85415 108.37 9.31431C108.442 9.36534 108.514 9.41651 108.586 9.46789L108.592 9.4722L108.598 9.47633C109.286 9.93646 109.821 10.4993 110.174 11.1178C110.427 11.7017 110.401 12.3303 110.093 12.906L110.093 12.9067C109.768 13.5163 109.323 14.0907 108.769 14.609L108.769 14.6089L108.763 14.6149C108.382 14.9836 107.994 15.3136 107.608 15.6422C107.442 15.7834 107.277 15.9244 107.112 16.0681C106.599 16.5048 106.127 16.9707 105.701 17.4625C105.008 18.2126 104.586 19.112 104.505 20.0638L104.504 20.0716L104.503 20.0795C104.488 20.3603 104.522 20.6404 104.602 20.9116C104.63 21.0124 104.665 21.1109 104.709 21.2065L105.648 20.8721C105.584 20.6316 105.555 20.3877 105.561 20.1443C105.649 19.4582 105.975 18.7864 106.526 18.2004L106.531 18.1946L106.537 18.1886C106.933 17.739 107.374 17.3112 107.854 16.9091L107.854 16.9091L107.86 16.9043C108.007 16.7778 108.166 16.6462 108.332 16.5086C108.726 16.1828 109.16 15.8236 109.567 15.4192C110.207 14.8256 110.734 14.1583 111.127 13.4371L111.127 13.4372L111.131 13.4297C111.587 12.5583 111.623 11.5787 111.226 10.6847L111.217 10.6647L111.206 10.6456C110.765 9.84851 110.101 9.15179 109.274 8.60088C109.057 8.44004 108.846 8.28866 108.642 8.14246C108.156 7.79406 107.711 7.47508 107.327 7.12761C106.388 6.27347 105.9 5.21977 105.899 4.15868H105.899L105.899 4.15169C105.888 3.43389 106.087 2.71642 106.492 2.05032C106.646 1.80663 106.779 1.62529 106.873 1.50705C106.919 1.44765 106.956 1.40423 106.98 1.37688C106.992 1.36321 107 1.35356 107.005 1.34795L107.01 1.34256ZM107.01 1.34256L107.01 1.3425L107.011 1.34214C107.011 1.34203 107.011 1.34217 107.01 1.34256Z" fill="#701704" stroke="#96AB7C"/>
<path d="M81.0102 1.34256L81.0099 1.34282L81.0098 1.34302L81.0097 1.34312C81.0096 1.34318 81.0096 1.34324 80.646 1L80.3041 0.63516C80.0372 0.885251 79.8018 1.15741 79.6026 1.44814L79.5984 1.45427L79.5944 1.46053C79.0683 2.27967 78.7864 3.19013 78.7815 4.12153C78.7674 5.52695 79.4062 6.86384 80.5353 7.90012L80.5369 7.90157C81.0899 8.40481 81.7223 8.85415 82.3699 9.31431C82.4417 9.36534 82.5137 9.41651 82.5859 9.46789L82.5919 9.4722L82.5981 9.47633C83.2861 9.93646 83.8208 10.4993 84.1745 11.1178C84.4271 11.7017 84.4006 12.3303 84.0929 12.906L84.0925 12.9067C83.7681 13.5163 83.3234 14.0907 82.7692 14.609L82.7692 14.6089L82.763 14.6149C82.3821 14.9836 81.9943 15.3136 81.6082 15.6422C81.4422 15.7834 81.2765 15.9244 81.1118 16.0681C80.5988 16.5048 80.1272 16.9707 79.7012 17.4625C79.0084 18.2126 78.5857 19.112 78.5046 20.0638L78.5039 20.0716L78.5035 20.0795C78.4885 20.3603 78.5221 20.6404 78.6024 20.9116C78.6298 21.0124 78.6654 21.1109 78.7088 21.2065L79.6475 20.8721C79.5839 20.6316 79.555 20.3877 79.5606 20.1443C79.6492 19.4582 79.9747 18.7864 80.526 18.2004L80.5315 18.1946L80.5368 18.1886C80.9334 17.739 81.3737 17.3112 81.8544 16.9091L81.8544 16.9091L81.8601 16.9043C82.0068 16.7778 82.1659 16.6462 82.3321 16.5086C82.7258 16.1828 83.16 15.8236 83.5671 15.4192C84.2071 14.8256 84.734 14.1583 85.127 13.4371L85.1271 13.4372L85.131 13.4297C85.587 12.5583 85.6225 11.5787 85.2256 10.6847L85.2168 10.6647L85.2062 10.6456C84.7654 9.84851 84.1005 9.15179 83.2736 8.60088C83.0567 8.44004 82.8456 8.28866 82.6418 8.14246C82.1559 7.79406 81.7111 7.47508 81.3266 7.12761C80.3882 6.27347 79.8997 5.21977 79.8989 4.15868H79.899L79.8989 4.15169C79.8883 3.43389 80.0872 2.71642 80.4915 2.05032C80.6456 1.80663 80.7794 1.62529 80.8726 1.50705C80.9195 1.44765 80.956 1.40423 80.9797 1.37688C80.9916 1.36321 81.0002 1.35356 81.0053 1.34795L81.0102 1.34256ZM81.0102 1.34256L81.0103 1.3425L81.0106 1.34214C81.0107 1.34203 81.0106 1.34217 81.0102 1.34256Z" fill="#701704" stroke="#96AB7C"/>
<path d="M94.0102 1.34256L94.0099 1.34282L94.0098 1.34302L94.0097 1.34312C94.0096 1.34318 94.0096 1.34324 93.646 1L93.3041 0.63516C93.0372 0.885251 92.8018 1.15741 92.6026 1.44814L92.5984 1.45427L92.5944 1.46053C92.0683 2.27967 91.7864 3.19013 91.7815 4.12153C91.7674 5.52695 92.4062 6.86384 93.5353 7.90012L93.5369 7.90157C94.0899 8.40481 94.7223 8.85415 95.3699 9.31431C95.4417 9.36534 95.5137 9.41651 95.5859 9.46789L95.5919 9.4722L95.5981 9.47633C96.2861 9.93646 96.8208 10.4993 97.1745 11.1178C97.4271 11.7017 97.4006 12.3303 97.0929 12.906L97.0925 12.9067C96.7681 13.5163 96.3234 14.0907 95.7692 14.609L95.7692 14.6089L95.763 14.6149C95.3821 14.9836 94.9943 15.3136 94.6082 15.6422C94.4422 15.7834 94.2765 15.9244 94.1118 16.0681C93.5988 16.5048 93.1272 16.9707 92.7012 17.4625C92.0084 18.2126 91.5857 19.112 91.5046 20.0638L91.5039 20.0716L91.5035 20.0795C91.4885 20.3603 91.5221 20.6404 91.6024 20.9116C91.6298 21.0124 91.6654 21.1109 91.7088 21.2065L92.6475 20.8721C92.5839 20.6316 92.555 20.3877 92.5606 20.1443C92.6492 19.4582 92.9747 18.7864 93.526 18.2004L93.5315 18.1946L93.5368 18.1886C93.9334 17.739 94.3737 17.3112 94.8544 16.9091L94.8544 16.9091L94.8601 16.9043C95.0068 16.7778 95.1659 16.6462 95.3321 16.5086C95.7258 16.1828 96.16 15.8236 96.5671 15.4192C97.2071 14.8256 97.734 14.1583 98.127 13.4371L98.1271 13.4372L98.131 13.4297C98.587 12.5583 98.6225 11.5787 98.2256 10.6847L98.2168 10.6647L98.2062 10.6456C97.7654 9.84851 97.1005 9.15179 96.2736 8.60088C96.0567 8.44004 95.8456 8.28866 95.6418 8.14246C95.1559 7.79406 94.7111 7.47508 94.3266 7.12761C93.3882 6.27347 92.8997 5.21977 92.8989 4.15868H92.899L92.8989 4.15169C92.8883 3.43389 93.0872 2.71642 93.4915 2.05032C93.6456 1.80663 93.7794 1.62529 93.8726 1.50705C93.9195 1.44765 93.956 1.40423 93.9797 1.37688C93.9916 1.36321 94.0002 1.35356 94.0053 1.34795L94.0102 1.34256ZM94.0102 1.34256L94.0103 1.3425L94.0106 1.34214C94.0107 1.34203 94.0106 1.34217 94.0102 1.34256Z" fill="#701704" stroke="#96AB7C"/>
<path d="M1.32 42C1.16 42 1.02 41.94 0.9 41.82C0.78 41.7 0.72 41.56 0.72 41.4L0.78 41.07L8.37 21.6C8.53 21.2 8.82 21 9.24 21H10.26C10.68 21 10.97 21.2 11.13 21.6L18.72 41.07L18.78 41.4C18.78 41.56 18.72 41.7 18.6 41.82C18.48 41.94 18.34 42 18.18 42H17.58C17.4 42 17.25 41.95 17.13 41.85C17.03 41.75 16.96 41.65 16.92 41.55L15.06 36.75H4.44L2.58 41.55C2.54 41.65 2.46 41.75 2.34 41.85C2.24 41.95 2.1 42 1.92 42H1.32ZM14.34 34.95L9.75 23.13L5.16 34.95H14.34ZM22.6017 42C22.4017 42 22.2417 41.94 22.1217 41.82C22.0017 41.7 21.9417 41.54 21.9417 41.34V27.06C21.9417 26.86 22.0017 26.7 22.1217 26.58C22.2417 26.46 22.4017 26.4 22.6017 26.4H23.1117C23.3117 26.4 23.4717 26.46 23.5917 26.58C23.7117 26.7 23.7717 26.86 23.7717 27.06V28.11C24.2917 27.45 24.8917 26.95 25.5717 26.61C26.2717 26.27 27.1017 26.1 28.0617 26.1C30.3017 26.1 31.9017 27.04 32.8617 28.92C33.3417 28.06 34.0217 27.38 34.9017 26.88C35.8017 26.36 36.8217 26.1 37.9617 26.1C39.6217 26.1 40.9717 26.67 42.0117 27.81C43.0517 28.93 43.5717 30.53 43.5717 32.61V41.34C43.5717 41.54 43.5117 41.7 43.3917 41.82C43.2717 41.94 43.1117 42 42.9117 42H42.4017C42.2017 42 42.0417 41.94 41.9217 41.82C41.8017 41.7 41.7417 41.54 41.7417 41.34V32.91C41.7417 31.09 41.3617 29.79 40.6017 29.01C39.8617 28.23 38.8817 27.84 37.6617 27.84C36.5817 27.84 35.6417 28.24 34.8417 29.04C34.0617 29.82 33.6717 31.11 33.6717 32.91V41.34C33.6717 41.54 33.6117 41.7 33.4917 41.82C33.3717 41.94 33.2117 42 33.0117 42H32.5017C32.3017 42 32.1417 41.94 32.0217 41.82C31.9017 41.7 31.8417 41.54 31.8417 41.34V32.91C31.8417 31.11 31.4517 29.82 30.6717 29.04C29.8917 28.24 28.9217 27.84 27.7617 27.84C26.6817 27.84 25.7417 28.24 24.9417 29.04C24.1617 29.82 23.7717 31.1 23.7717 32.88V41.34C23.7717 41.54 23.7117 41.7 23.5917 41.82C23.4717 41.94 23.3117 42 23.1117 42H22.6017ZM48.6096 23.19C48.4096 23.19 48.2496 23.13 48.1296 23.01C48.0096 22.89 47.9496 22.73 47.9496 22.53V21.39C47.9496 21.19 48.0096 21.03 48.1296 20.91C48.2496 20.77 48.4096 20.7 48.6096 20.7H49.7496C49.9496 20.7 50.1096 20.77 50.2296 20.91C50.3696 21.03 50.4396 21.19 50.4396 21.39V22.53C50.4396 22.73 50.3696 22.89 50.2296 23.01C50.1096 23.13 49.9496 23.19 49.7496 23.19H48.6096ZM48.9396 42C48.7396 42 48.5796 41.94 48.4596 41.82C48.3396 41.7 48.2796 41.54 48.2796 41.34V27.06C48.2796 26.86 48.3396 26.7 48.4596 26.58C48.5796 26.46 48.7396 26.4 48.9396 26.4H49.4496C49.6496 26.4 49.8096 26.46 49.9296 26.58C50.0496 26.7 50.1096 26.86 50.1096 27.06V41.34C50.1096 41.54 50.0496 41.7 49.9296 41.82C49.8096 41.94 49.6496 42 49.4496 42H48.9396ZM55.3793 42C55.1793 42 54.9993 41.93 54.8393 41.79C54.6993 41.63 54.6293 41.45 54.6293 41.25V21.75C54.6293 21.53 54.6993 21.35 54.8393 21.21C54.9993 21.07 55.1793 21 55.3793 21H69.1793C69.3993 21 69.5793 21.07 69.7193 21.21C69.8593 21.35 69.9293 21.53 69.9293 21.75V24.78C69.9293 24.98 69.8593 25.16 69.7193 25.32C69.5793 25.46 69.3993 25.53 69.1793 25.53H59.9093V29.94H68.5793C68.7993 29.94 68.9793 30.02 69.1193 30.18C69.2593 30.32 69.3293 30.5 69.3293 30.72V33.72C69.3293 33.92 69.2593 34.1 69.1193 34.26C68.9793 34.4 68.7993 34.47 68.5793 34.47H59.9093V41.25C59.9093 41.47 59.8393 41.65 59.6993 41.79C59.5593 41.93 59.3793 42 59.1593 42H55.3793ZM79.9313 42.3C77.4513 42.3 75.5413 41.71 74.2013 40.53C72.8613 39.35 72.1313 37.69 72.0113 35.55C71.9913 35.29 71.9813 34.84 71.9813 34.2C71.9813 33.56 71.9913 33.11 72.0113 32.85C72.1313 30.73 72.8813 29.08 74.2613 27.9C75.6413 26.7 77.5313 26.1 79.9313 26.1C82.3513 26.1 84.2513 26.7 85.6313 27.9C87.0113 29.08 87.7613 30.73 87.8813 32.85C87.9013 33.11 87.9113 33.56 87.9113 34.2C87.9113 34.84 87.9013 35.29 87.8813 35.55C87.7613 37.69 87.0313 39.35 85.6913 40.53C84.3513 41.71 82.4313 42.3 79.9313 42.3ZM79.9313 38.64C80.8113 38.64 81.4613 38.38 81.8813 37.86C82.3013 37.32 82.5413 36.5 82.6013 35.4C82.6213 35.2 82.6313 34.8 82.6313 34.2C82.6313 33.6 82.6213 33.2 82.6013 33C82.5413 31.92 82.2913 31.11 81.8513 30.57C81.4313 30.03 80.7913 29.76 79.9313 29.76C78.2713 29.76 77.3913 30.84 77.2913 33L77.2613 34.2L77.2913 35.4C77.3313 36.5 77.5613 37.32 77.9813 37.86C78.4213 38.38 79.0713 38.64 79.9313 38.64ZM98.2711 42.3C95.7911 42.3 93.8811 41.71 92.5411 40.53C91.2011 39.35 90.4711 37.69 90.3511 35.55C90.3311 35.29 90.3211 34.84 90.3211 34.2C90.3211 33.56 90.3311 33.11 90.3511 32.85C90.4711 30.73 91.2211 29.08 92.6011 27.9C93.9811 26.7 95.8711 26.1 98.2711 26.1C100.691 26.1 102.591 26.7 103.971 27.9C105.351 29.08 106.101 30.73 106.221 32.85C106.241 33.11 106.251 33.56 106.251 34.2C106.251 34.84 106.241 35.29 106.221 35.55C106.101 37.69 105.371 39.35 104.031 40.53C102.691 41.71 100.771 42.3 98.2711 42.3ZM98.2711 38.64C99.1511 38.64 99.8011 38.38 100.221 37.86C100.641 37.32 100.881 36.5 100.941 35.4C100.961 35.2 100.971 34.8 100.971 34.2C100.971 33.6 100.961 33.2 100.941 33C100.881 31.92 100.631 31.11 100.191 30.57C99.7711 30.03 99.1311 29.76 98.2711 29.76C96.6111 29.76 95.7311 30.84 95.6311 33L95.6011 34.2L95.6311 35.4C95.6711 36.5 95.9011 37.32 96.3211 37.86C96.7611 38.38 97.4111 38.64 98.2711 38.64ZM115.051 42.3C113.091 42.3 111.561 41.69 110.461 40.47C109.381 39.23 108.791 37.49 108.691 35.25L108.661 34.2L108.691 33.12C108.771 30.96 109.361 29.25 110.461 27.99C111.581 26.73 113.111 26.1 115.051 26.1C116.871 26.1 118.341 26.69 119.461 27.87V21.45C119.461 21.23 119.531 21.05 119.671 20.91C119.811 20.77 119.991 20.7 120.211 20.7H123.871C124.091 20.7 124.271 20.77 124.411 20.91C124.551 21.05 124.621 21.23 124.621 21.45V41.25C124.621 41.45 124.551 41.63 124.411 41.79C124.271 41.93 124.091 42 123.871 42H120.481C120.281 42 120.101 41.93 119.941 41.79C119.801 41.63 119.731 41.45 119.731 41.25V40.29C118.631 41.63 117.071 42.3 115.051 42.3ZM116.701 38.28C117.601 38.28 118.271 38 118.711 37.44C119.151 36.86 119.401 36.12 119.461 35.22C119.481 34.96 119.491 34.58 119.491 34.08C119.491 33.6 119.481 33.23 119.461 32.97C119.421 32.15 119.171 31.47 118.711 30.93C118.251 30.39 117.581 30.12 116.701 30.12C115.761 30.12 115.081 30.4 114.661 30.96C114.261 31.52 114.031 32.29 113.971 33.27C113.951 33.47 113.941 33.78 113.941 34.2C113.941 34.62 113.951 34.93 113.971 35.13C114.031 36.11 114.261 36.88 114.661 37.44C115.081 38 115.761 38.28 116.701 38.28Z" fill="#D42C07"/>
<path d="M58.662 66.18C57.45 66.18 56.52 65.79 55.872 65.01C55.224 64.23 54.876 63.192 54.828 61.896L54.81 61.302L54.828 60.726C54.864 59.466 55.206 58.44 55.854 57.648C56.514 56.856 57.45 56.46 58.662 56.46C59.826 56.46 60.75 56.856 61.434 57.648V53.652C61.434 53.52 61.476 53.418 61.56 53.346C61.644 53.262 61.746 53.22 61.866 53.22H63.396C63.528 53.22 63.63 53.262 63.702 53.346C63.786 53.418 63.828 53.52 63.828 53.652V65.568C63.828 65.688 63.786 65.79 63.702 65.874C63.63 65.958 63.528 66 63.396 66H61.974C61.854 66 61.752 65.958 61.668 65.874C61.584 65.79 61.542 65.688 61.542 65.568V64.902C60.858 65.754 59.898 66.18 58.662 66.18ZM59.328 64.254C60.024 64.254 60.54 64.032 60.876 63.588C61.212 63.144 61.398 62.598 61.434 61.95C61.446 61.806 61.452 61.572 61.452 61.248C61.452 60.936 61.446 60.708 61.434 60.564C61.41 59.964 61.218 59.454 60.858 59.034C60.51 58.602 60 58.386 59.328 58.386C58.032 58.386 57.342 59.184 57.258 60.78L57.24 61.32L57.258 61.86C57.342 63.456 58.032 64.254 59.328 64.254ZM70.2591 66.18C68.9271 66.18 67.8651 65.796 67.0731 65.028C66.2931 64.248 65.8791 63.156 65.8311 61.752L65.8131 61.302L65.8311 60.852C65.8911 59.484 66.3111 58.41 67.0911 57.63C67.8831 56.85 68.9391 56.46 70.2591 56.46C71.6751 56.46 72.7671 56.892 73.5351 57.756C74.3151 58.62 74.7051 59.772 74.7051 61.212V61.59C74.7051 61.71 74.6631 61.812 74.5791 61.896C74.4951 61.98 74.3871 62.022 74.2551 62.022H68.2791V62.166C68.3031 62.826 68.4831 63.384 68.8191 63.84C69.1671 64.284 69.6411 64.506 70.2411 64.506C70.9491 64.506 71.5191 64.23 71.9511 63.678C72.0591 63.546 72.1431 63.462 72.2031 63.426C72.2751 63.39 72.3771 63.372 72.5091 63.372H74.0571C74.1651 63.372 74.2551 63.408 74.3271 63.48C74.4111 63.54 74.4531 63.618 74.4531 63.714C74.4531 64.002 74.2791 64.344 73.9311 64.74C73.5951 65.124 73.1091 65.46 72.4731 65.748C71.8371 66.036 71.0991 66.18 70.2591 66.18ZM72.2571 60.51V60.456C72.2571 59.748 72.0771 59.178 71.7171 58.746C71.3691 58.314 70.8831 58.098 70.2591 58.098C69.6351 58.098 69.1491 58.314 68.8011 58.746C68.4531 59.178 68.2791 59.748 68.2791 60.456V60.51H72.2571ZM77.0657 66C76.9457 66 76.8437 65.958 76.7597 65.874C76.6757 65.79 76.6337 65.688 76.6337 65.568V53.652C76.6337 53.52 76.6757 53.418 76.7597 53.346C76.8437 53.262 76.9457 53.22 77.0657 53.22H78.5597C78.6917 53.22 78.7937 53.262 78.8657 53.346C78.9497 53.418 78.9917 53.52 78.9917 53.652V65.568C78.9917 65.688 78.9497 65.79 78.8657 65.874C78.7937 65.958 78.6917 66 78.5597 66H77.0657ZM81.7394 55.092C81.6194 55.092 81.5174 55.05 81.4334 54.966C81.3494 54.882 81.3074 54.78 81.3074 54.66V53.364C81.3074 53.244 81.3494 53.142 81.4334 53.058C81.5174 52.974 81.6194 52.932 81.7394 52.932H83.3774C83.4974 52.932 83.5994 52.974 83.6834 53.058C83.7794 53.142 83.8274 53.244 83.8274 53.364V54.66C83.8274 54.78 83.7854 54.882 83.7014 54.966C83.6174 55.05 83.5094 55.092 83.3774 55.092H81.7394ZM81.8114 66C81.6914 66 81.5894 65.958 81.5054 65.874C81.4214 65.79 81.3794 65.688 81.3794 65.568V57.072C81.3794 56.952 81.4214 56.85 81.5054 56.766C81.5894 56.682 81.6914 56.64 81.8114 56.64H83.3054C83.4374 56.64 83.5394 56.682 83.6114 56.766C83.6954 56.838 83.7374 56.94 83.7374 57.072V65.568C83.7374 65.688 83.6954 65.79 83.6114 65.874C83.5394 65.958 83.4374 66 83.3054 66H81.8114ZM89.4375 66C89.2575 66 89.1195 65.964 89.0235 65.892C88.9275 65.808 88.8495 65.694 88.7895 65.55L85.4235 57.198L85.3875 57.036C85.3875 56.928 85.4235 56.838 85.4955 56.766C85.5795 56.682 85.6755 56.64 85.7835 56.64H87.2415C87.4695 56.64 87.6255 56.754 87.7095 56.982L90.1035 63.3L92.4975 56.982C92.5335 56.898 92.5875 56.82 92.6595 56.748C92.7435 56.676 92.8455 56.64 92.9655 56.64H94.4415C94.5375 56.64 94.6215 56.682 94.6935 56.766C94.7775 56.838 94.8195 56.928 94.8195 57.036C94.8195 57.108 94.8135 57.162 94.8015 57.198L91.4175 65.55C91.3575 65.694 91.2795 65.808 91.1835 65.892C91.0875 65.964 90.9495 66 90.7695 66H89.4375ZM100.159 66.18C98.8275 66.18 97.7655 65.796 96.9735 65.028C96.1935 64.248 95.7795 63.156 95.7315 61.752L95.7135 61.302L95.7315 60.852C95.7915 59.484 96.2115 58.41 96.9915 57.63C97.7835 56.85 98.8395 56.46 100.159 56.46C101.575 56.46 102.667 56.892 103.435 57.756C104.215 58.62 104.605 59.772 104.605 61.212V61.59C104.605 61.71 104.563 61.812 104.479 61.896C104.395 61.98 104.287 62.022 104.155 62.022H98.1795V62.166C98.2035 62.826 98.3835 63.384 98.7195 63.84C99.0675 64.284 99.5415 64.506 100.141 64.506C100.849 64.506 101.419 64.23 101.851 63.678C101.959 63.546 102.043 63.462 102.103 63.426C102.175 63.39 102.277 63.372 102.409 63.372H103.957C104.065 63.372 104.155 63.408 104.227 63.48C104.311 63.54 104.353 63.618 104.353 63.714C104.353 64.002 104.179 64.344 103.831 64.74C103.495 65.124 103.009 65.46 102.373 65.748C101.737 66.036 100.999 66.18 100.159 66.18ZM102.157 60.51V60.456C102.157 59.748 101.977 59.178 101.617 58.746C101.269 58.314 100.783 58.098 100.159 58.098C99.5355 58.098 99.0495 58.314 98.7015 58.746C98.3535 59.178 98.1795 59.748 98.1795 60.456V60.51H102.157ZM106.948 66C106.828 66 106.726 65.958 106.642 65.874C106.558 65.79 106.516 65.688 106.516 65.568V57.09C106.516 56.97 106.558 56.868 106.642 56.784C106.726 56.688 106.828 56.64 106.948 56.64H108.406C108.538 56.64 108.646 56.682 108.73 56.766C108.814 56.85 108.856 56.958 108.856 57.09V57.828C109.144 57.444 109.504 57.15 109.936 56.946C110.38 56.742 110.884 56.64 111.448 56.64H112.186C112.318 56.64 112.42 56.682 112.492 56.766C112.576 56.838 112.618 56.94 112.618 57.072V58.368C112.618 58.488 112.576 58.59 112.492 58.674C112.42 58.758 112.318 58.8 112.186 58.8H110.782C110.218 58.8 109.774 58.962 109.45 59.286C109.126 59.61 108.964 60.054 108.964 60.618V65.568C108.964 65.688 108.922 65.79 108.838 65.874C108.754 65.958 108.646 66 108.514 66H106.948ZM115.714 69.42C115.618 69.42 115.534 69.384 115.462 69.312C115.39 69.24 115.354 69.156 115.354 69.06C115.354 68.952 115.378 68.856 115.426 68.772L116.83 65.442L113.374 57.288C113.326 57.18 113.302 57.096 113.302 57.036C113.314 56.928 113.356 56.838 113.428 56.766C113.5 56.682 113.59 56.64 113.698 56.64H115.156C115.384 56.64 115.546 56.754 115.642 56.982L118.036 62.868L120.502 56.982C120.598 56.754 120.76 56.64 120.988 56.64H122.428C122.524 56.64 122.608 56.676 122.68 56.748C122.764 56.82 122.806 56.904 122.806 57C122.806 57.084 122.782 57.18 122.734 57.288L117.64 69.078C117.532 69.306 117.364 69.42 117.136 69.42H115.714Z" fill="#D14242"/>
</svg>
