<svg width="154" height="138" viewBox="0 0 154 138" fill="none" xmlns="http://www.w3.org/2000/svg">
<path d="M128.253 24.48C128.655 24.7772 128.655 24.7771 128.655 24.7771L128.655 24.7769L128.655 24.7767L128.654 24.7783L128.645 24.7902C128.637 24.8017 128.624 24.8203 128.607 24.8461C128.572 24.8976 128.52 24.9778 128.453 25.0869C128.32 25.3044 128.131 25.6366 127.914 26.0848C127.328 27.3397 127.03 28.7102 127.043 30.0954L127.043 30.0972C127.054 32.1461 127.778 34.1271 129.089 35.7009C129.938 36.6284 130.834 37.511 131.774 38.3452C132.878 39.3165 133.752 40.5215 134.332 41.8727L134.34 41.89L134.346 41.9079C134.843 43.3585 134.797 44.9404 134.215 46.3595L134.215 46.3608C133.702 47.6026 133.004 48.7593 132.144 49.7916C131.549 50.5728 130.919 51.2476 130.338 51.8701C130.161 52.0601 129.988 52.2452 129.822 52.427L129.822 52.4273C129.159 53.1527 128.553 53.9281 128.009 54.7467L127.997 54.7656L127.982 54.7832C127.402 55.5052 126.987 56.346 126.768 57.246C126.567 58.0691 126.535 58.9233 126.67 59.7579C126.717 59.9333 126.723 60.0467 126.723 60.09L125.733 60.1888C125.718 60.1182 125.705 60.0475 125.693 59.9767C125.684 59.9461 125.672 59.9103 125.656 59.8695L125.644 59.8383L125.636 59.8058C125.532 59.3694 125.488 58.9211 125.503 58.4728L125.503 58.465L125.504 58.4571C125.607 56.8905 126.146 55.384 127.06 54.1076C127.626 53.24 128.258 52.4173 128.95 51.6467M128.253 24.48L129.077 51.7596L128.951 51.6458C128.95 51.6461 128.95 51.6464 128.95 51.6467M128.253 24.48L127.868 24.1605C127.509 24.5924 127.2 25.0632 126.947 25.5641L126.947 25.5641L126.945 25.568C126.253 26.9638 125.893 28.5004 125.893 30.058C125.875 32.3861 126.686 34.6447 128.179 36.4307L128.185 36.4377L128.191 36.4445C129.061 37.4111 129.982 38.3313 130.948 39.2016L130.948 39.2016L130.955 39.2075C131.924 40.0493 132.69 41.0997 133.196 42.2797M128.253 24.48L133.196 42.2797M128.95 51.6467C129.135 51.4383 129.323 51.2312 129.512 51.0231C130.079 50.3963 130.656 49.7599 131.209 49.0522L131.216 49.0422L131.217 49.0423C131.994 48.0977 132.625 47.0421 133.09 45.9106C133.563 44.7528 133.601 43.4628 133.196 42.2797M128.95 51.6467C128.95 51.647 128.949 51.6472 128.949 51.6475L129.076 51.7607M133.196 42.2797L127.183 54.1818C127.185 54.1794 127.187 54.177 127.189 54.1746M129.076 51.7607C128.387 52.5162 127.756 53.3232 127.189 54.1746M129.076 51.7607L129.323 51.98L129.076 51.7607ZM127.189 54.1746C127.193 54.1687 127.198 54.1627 127.203 54.1567L127.48 54.3792L127.189 54.1746ZM128.655 24.7764C128.655 24.7763 128.655 24.7763 128.655 24.7765L128.655 24.7764Z" fill="#263238" stroke="#C7B7B7"/>
<path d="M137.828 24.2929C137.828 24.293 137.828 24.2931 137.423 24L137.036 23.6835C136.685 24.1128 136.378 24.5765 136.12 25.0676L136.12 25.0675L136.114 25.0792C135.428 26.4727 135.069 28.004 135.063 29.5571C135.044 31.8885 135.855 34.1507 137.349 35.9404L137.35 35.9421C138.093 36.824 138.943 37.6128 139.829 38.4337C139.926 38.524 140.024 38.6148 140.122 38.7061L140.128 38.7115L140.134 38.7167C141.099 39.5591 141.865 40.6054 142.376 41.78C142.775 42.9645 142.734 44.2534 142.26 45.4105L142.26 45.4112C141.798 46.5424 141.17 47.5981 140.396 48.5431L140.396 48.5431L140.391 48.5496C139.865 49.2133 139.327 49.8113 138.798 50.3987C138.573 50.6489 138.349 50.8971 138.129 51.1477C137.437 51.9165 136.802 52.7351 136.23 53.5971C135.322 54.8795 134.786 56.3889 134.684 57.9574L134.684 57.9574L134.683 57.9695C134.665 58.4118 134.706 58.8546 134.804 59.2861C134.836 59.4414 134.878 59.5944 134.93 59.7441L135.893 59.4807C135.795 58.9999 135.751 58.5097 135.762 58.0193C135.891 56.671 136.376 55.3812 137.168 54.2824L137.173 54.2763L137.177 54.27C137.727 53.4555 138.337 52.6827 139.001 51.9577L139.001 51.9578L139.006 51.9522C139.214 51.719 139.435 51.4803 139.664 51.2329C140.198 50.6559 140.776 50.0319 141.323 49.322C142.179 48.2872 142.877 47.1316 143.394 45.8927L143.394 45.8927L143.397 45.8861C143.968 44.4624 144.01 42.8812 143.516 41.429L143.51 41.4117L143.503 41.3949C142.931 40.0446 142.058 38.8428 140.951 37.8813C140.661 37.601 140.376 37.3345 140.099 37.0752C139.432 36.4504 138.809 35.8679 138.275 35.2374C136.951 33.6649 136.224 31.6755 136.223 29.6197H136.223L136.223 29.6143C136.207 28.2334 136.502 26.8665 137.084 25.6145C137.302 25.1658 137.491 24.8305 137.624 24.6098C137.691 24.4992 137.744 24.4174 137.779 24.3645C137.797 24.3381 137.81 24.3189 137.818 24.307L137.827 24.2946L137.828 24.2928L137.828 24.2929ZM137.828 24.2925C137.828 24.2923 137.828 24.2923 137.828 24.2924L137.828 24.2925Z" fill="#263238" stroke="#D7C8C8"/>
<path d="M18.1542 53.2507C17.9915 52.7407 17.9569 52.1985 18.0535 51.6719C18.1501 51.1453 18.3748 50.6507 18.7079 50.2316C19.041 49.8125 19.4722 49.4819 19.9634 49.269C20.4546 49.056 20.9906 48.9673 21.5242 49.0107C32.2042 49.8907 57.5742 53.4407 72.6242 57.7707C93.9642 63.9107 108.014 67.8807 108.014 67.8807L153.334 66.8807C153.334 66.8807 147.894 82.5007 130.624 82.5807C117.554 82.6407 103.844 74.2407 103.844 74.2407C103.844 74.2407 45.7642 54.4607 21.3742 55.5307C20.6619 55.5622 19.9593 55.3565 19.3765 54.9456C18.7938 54.5348 18.3639 53.9422 18.1542 53.2607V53.2507Z" fill="#263238"/>
<path d="M34.4842 50.7607C33.7735 51.1562 33.0387 51.5069 32.2842 51.8107C28.6263 53.2964 24.6663 53.8861 20.7342 53.5307C19.9238 53.4643 19.1187 53.3441 18.3242 53.1707C18.3242 53.1707 18.5542 53.1707 18.9642 53.2607C19.3742 53.3507 19.9642 53.3907 20.7342 53.4507C22.6888 53.6081 24.6549 53.541 26.5942 53.2507C28.531 52.9588 30.4294 52.4523 32.2542 51.7408C32.9542 51.4608 33.5142 51.2207 33.8942 51.0307L34.4842 50.7607Z" fill="#263238"/>
<path d="M54.3642 53.6307H54.1742L53.6342 53.5707C53.1642 53.5107 52.4842 53.4507 51.6342 53.4007C49.435 53.2693 47.2281 53.3834 45.0542 53.7407C42.8822 54.1107 40.7565 54.7142 38.7142 55.5407C37.9342 55.8707 37.3042 56.1507 36.8842 56.3607L36.3942 56.5907L36.2142 56.6607C36.2142 56.6607 36.2642 56.6607 36.3742 56.5507L36.8442 56.2807C37.2642 56.0507 37.8442 55.7507 38.6642 55.4107C40.7012 54.5339 42.8367 53.906 45.0242 53.5407C47.2115 53.1812 49.4338 53.0839 51.6442 53.2507C52.4942 53.3207 53.1742 53.4107 53.6442 53.4907L54.1842 53.5907L54.3642 53.6307Z" fill="#263238"/>
<path d="M69.2242 61.1607L67.1342 60.5407L64.6942 59.8007C64.1653 59.6818 63.6844 59.4066 63.3142 59.0107C63.2216 58.8921 63.1594 58.7525 63.1333 58.6044C63.1071 58.4562 63.1177 58.3038 63.1642 58.1607C63.2186 58.0116 63.3078 57.8776 63.4243 57.7698C63.5408 57.6619 63.6813 57.5834 63.8342 57.5407C64.486 57.342 65.1823 57.342 65.8342 57.5407C66.5042 57.6707 67.2042 57.8207 67.9142 58.0207C69.4268 58.4463 70.8965 59.0121 72.3042 59.7107C73.0442 60.0807 73.7942 60.4907 74.5242 60.9507C74.912 61.1585 75.2525 61.4445 75.5242 61.7907C75.5937 61.8881 75.6376 62.0015 75.6516 62.1204C75.6655 62.2393 75.6492 62.3598 75.6042 62.4707C75.4981 62.6814 75.321 62.8479 75.1042 62.9407C73.351 63.6164 71.4527 63.8265 69.5942 63.5507C65.7442 63.0607 62.4942 61.2107 59.5942 59.6907C57.0681 58.1943 54.3256 57.098 51.4642 56.4407C49.5257 56.0324 47.5165 56.108 45.6142 56.6607C45.1001 56.8227 44.6014 57.0301 44.1242 57.2807C43.8042 57.4607 43.6342 57.5407 43.6342 57.5407L44.0442 57.2507C44.5165 56.9917 45.0119 56.7774 45.5242 56.6107C47.4362 56.0389 49.4606 55.9529 51.4142 56.3607C54.2846 57.0096 57.0372 58.0992 59.5742 59.5907C62.4842 61.1107 65.7342 62.9507 69.5742 63.4407C71.4122 63.711 73.2889 63.5044 75.0242 62.8407C75.2246 62.7631 75.3887 62.6132 75.4842 62.4207C75.5194 62.3237 75.5315 62.2198 75.5193 62.1174C75.5071 62.0149 75.4711 61.9167 75.4142 61.8307C75.1395 61.4979 74.7991 61.2256 74.4142 61.0307C73.7006 60.5775 72.9628 60.1635 72.2042 59.7907C70.8 59.0922 69.3336 58.5264 67.8242 58.1007C67.1242 57.9007 66.4242 57.7407 65.7542 57.6007C65.1303 57.4204 64.4681 57.4204 63.8442 57.6007C63.7028 57.6447 63.5729 57.7195 63.4639 57.8198C63.355 57.9201 63.2697 58.0434 63.2142 58.1807C63.1693 58.3129 63.1577 58.4541 63.1803 58.5919C63.203 58.7297 63.2593 58.8598 63.3442 58.9707C63.7062 59.3597 64.1763 59.6313 64.6942 59.7507L67.1342 60.5007L69.2242 61.1607Z" fill="#263238"/>
<path d="M79.7642 60.2507C79.9445 60.5591 80.0666 60.8981 80.1242 61.2507C80.2871 62.0677 80.1855 62.9154 79.8342 63.6707C79.4636 64.4169 78.8692 65.0287 78.1342 65.4207C77.8236 65.5886 77.4845 65.6972 77.1342 65.7407C77.451 65.6362 77.7587 65.5058 78.0542 65.3507C78.7781 64.967 79.3611 64.3629 79.7188 63.6258C80.0766 62.8887 80.1905 62.0569 80.0442 61.2507C79.9776 60.9105 79.884 60.5761 79.7642 60.2507V60.2507Z" fill="#263238"/>
<path d="M98.1642 65.0607C98.1642 65.0607 97.1642 65.0608 95.6042 64.9608C94.0442 64.8608 91.8442 64.6308 89.4242 64.6008C87.3773 64.5267 85.3365 64.8668 83.4242 65.6008C83.0787 65.7261 82.7442 65.88 82.4242 66.0607C82.1829 66.1756 81.9549 66.3164 81.7442 66.4807L81.1742 66.8608L81.7142 66.4507C81.923 66.2781 82.1512 66.1304 82.3942 66.0107C82.7135 65.823 83.048 65.6624 83.3942 65.5307C85.3293 64.7783 87.4 64.4377 89.4742 64.5307C91.9042 64.5307 94.0742 64.8207 95.6542 64.9307C96.4442 64.9907 97.0842 65.0407 97.5242 65.0607H98.1642Z" fill="#263238"/>
<path d="M117.354 80.1507C117.354 80.1507 116.994 79.8407 116.354 79.2607C116.034 78.9707 115.634 78.6207 115.154 78.2607C114.674 77.9007 114.154 77.4207 113.514 76.9707C112.069 75.8764 110.556 74.8744 108.984 73.9707C105.137 71.7744 100.975 70.1825 96.6442 69.2507C94.8807 68.8608 93.0935 68.5869 91.2942 68.4307C90.5242 68.3307 89.8242 68.3207 89.2142 68.2907C88.6042 68.2607 88.0742 68.2907 87.6442 68.2907H86.3042H87.6442C88.0742 68.2907 88.6442 68.2907 89.2142 68.2907C89.7842 68.2907 90.5242 68.2907 91.2942 68.4107C93.0993 68.5633 94.893 68.8305 96.6642 69.2107C98.8302 69.6784 100.962 70.2931 103.044 71.0507C105.108 71.861 107.112 72.8133 109.044 73.9007C110.617 74.8027 112.13 75.8048 113.574 76.9007C114.204 77.3407 114.724 77.8107 115.204 78.2007C115.684 78.5907 116.074 78.9307 116.384 79.2007C117.044 79.8207 117.354 80.1507 117.354 80.1507Z" fill="#263238"/>
<path d="M130.464 80.4907C130.147 80.6631 129.811 80.8006 129.464 80.9007C128.535 81.1828 127.564 81.3012 126.594 81.2507C125.154 81.1599 123.746 80.7933 122.444 80.1707C120.865 79.3876 119.41 78.3769 118.124 77.1707C116.734 75.9107 115.524 74.6107 114.404 73.4507C113.424 72.3935 112.386 71.3919 111.294 70.4507C110.559 69.8254 109.776 69.2571 108.954 68.7507C108.664 68.5807 108.434 68.4407 108.274 68.3607L108.044 68.2507C109.237 68.8265 110.35 69.556 111.354 70.4207C112.447 71.35 113.492 72.3346 114.484 73.3707C115.614 74.5307 116.824 75.8307 118.204 77.0807C119.481 78.2832 120.926 79.2938 122.494 80.0807C123.785 80.704 125.184 81.0708 126.614 81.1607C127.575 81.2249 128.54 81.12 129.464 80.8507C129.717 80.7799 129.965 80.6896 130.204 80.5807L130.464 80.4907Z" fill="#263238"/>
<path d="M147.634 75.6807H147.294C147.064 75.6807 146.744 75.6807 146.344 75.6807C145.299 75.6827 144.258 75.7899 143.234 76.0007C142.201 76.224 141.195 76.5593 140.234 77.0007C139.874 77.1607 139.574 77.3107 139.384 77.4207C139.283 77.4815 139.176 77.5318 139.064 77.5707C139.427 77.3288 139.809 77.1148 140.204 76.9307C142.104 76.0133 144.195 75.5641 146.304 75.6207C146.748 75.6112 147.193 75.6312 147.634 75.6807V75.6807Z" fill="#263238"/>
<path d="M70 14.83C70.48 23.83 78.85 41.56 99.67 35.41C98.49 23.12 87.99 15.06 70 14.83Z" fill="#736A6A"/>
<path opacity="0.3" d="M70 14.83C70.48 23.83 78.85 41.56 99.67 35.41C98.49 23.12 87.99 15.06 70 14.83Z" fill="black"/>
<path d="M72.83 17.14C75.076 19.153 77.4879 20.9728 80.04 22.58C82.58 24.25 85.18 25.85 87.77 27.44C90.36 29.03 93.02 30.55 95.64 32.09L103.47 36.78C103.558 36.8279 103.625 36.9071 103.657 37.0019C103.69 37.0966 103.685 37.2001 103.645 37.2918C103.605 37.3835 103.532 37.4569 103.44 37.4973C103.348 37.5376 103.245 37.5422 103.15 37.51C100.193 36.5798 97.3404 35.3431 94.64 33.82C91.94 32.34 89.32 30.73 86.72 29.09C84.12 27.45 81.59 25.69 79.12 23.85C77.88 22.93 76.66 21.99 75.49 20.96C74.2823 19.9622 73.1769 18.8467 72.19 17.63C72.1278 17.5455 72.1003 17.4402 72.1133 17.336C72.1264 17.2318 72.1789 17.1366 72.26 17.07C72.3349 17.0091 72.4285 16.9758 72.525 16.9758C72.6215 16.9758 72.7151 17.0091 72.79 17.07L72.83 17.14Z" fill="#736A6A"/>
<path d="M79.56 23.61H79.5C79.4485 23.6027 79.399 23.5852 79.3544 23.5585C79.3098 23.5318 79.271 23.4964 79.2402 23.4545C79.2095 23.4126 79.1874 23.3649 79.1754 23.3143C79.1633 23.2638 79.1615 23.2113 79.17 23.16C79.5113 21.4637 79.3336 19.7038 78.66 18.11C78.6101 18.0171 78.5989 17.9082 78.6288 17.8071C78.6588 17.7059 78.7275 17.6207 78.82 17.57C78.8657 17.5439 78.9162 17.5273 78.9685 17.5213C79.0207 17.5152 79.0737 17.5198 79.1241 17.5348C79.1746 17.5497 79.2215 17.5747 79.262 17.6083C79.3026 17.6418 79.3359 17.6832 79.36 17.73C80.1352 19.4718 80.345 21.4128 79.96 23.28C79.9416 23.3727 79.8917 23.4561 79.8188 23.5163C79.7459 23.5764 79.6545 23.6095 79.56 23.61V23.61Z" fill="#736A6A"/>
<path d="M78.88 30.55C78.7739 30.55 78.6722 30.5078 78.5972 30.4328C78.5222 30.3578 78.48 30.2561 78.48 30.15C78.48 30.0439 78.5222 29.9422 78.5972 29.8672C78.6722 29.7921 78.7739 29.75 78.88 29.75C78.88 29.75 83.7 29.31 85.08 26.89C85.1039 26.8402 85.1378 26.796 85.1795 26.76C85.2213 26.724 85.2701 26.697 85.3228 26.6807C85.3755 26.6645 85.431 26.6593 85.4858 26.6655C85.5406 26.6717 85.5936 26.6892 85.6413 26.7169C85.689 26.7446 85.7305 26.7818 85.7631 26.8263C85.7958 26.8708 85.8189 26.9215 85.8309 26.9753C85.843 27.0291 85.8439 27.0848 85.8334 27.139C85.8229 27.1932 85.8013 27.2446 85.77 27.29C84.18 30.07 79.16 30.53 78.95 30.55H78.88Z" fill="#736A6A"/>
<path d="M90.73 30.78C90.6652 30.7758 90.6025 30.7554 90.5476 30.7208C90.4927 30.6862 90.4472 30.6384 90.4155 30.5818C90.3837 30.5252 90.3665 30.4615 90.3656 30.3966C90.3646 30.3317 90.3799 30.2675 90.41 30.21C92.04 27.16 89.41 23.02 89.41 22.97C89.3807 22.9264 89.3605 22.8772 89.3506 22.8256C89.3408 22.7739 89.3415 22.7208 89.3527 22.6694C89.3639 22.618 89.3854 22.5695 89.4159 22.5266C89.4463 22.4837 89.4852 22.4475 89.53 22.42C89.619 22.3635 89.7267 22.3444 89.8297 22.3669C89.9327 22.3893 90.0226 22.4515 90.08 22.54C90.2 22.73 93 27.12 91.15 30.54C91.1188 30.6225 91.0598 30.6917 90.9831 30.7355C90.9065 30.7792 90.817 30.795 90.73 30.78V30.78Z" fill="#736A6A"/>
<path d="M91.49 34.9501C91.3873 34.9502 91.2885 34.9108 91.214 34.8401C91.1395 34.7693 91.0951 34.6726 91.09 34.57C91.0871 34.4646 91.125 34.3621 91.1958 34.2839C91.2666 34.2057 91.3648 34.1577 91.47 34.1501C92.7519 33.977 93.9658 33.4701 94.99 32.6801C95.0327 32.6492 95.081 32.6271 95.1323 32.6149C95.1835 32.6027 95.2366 32.6007 95.2886 32.6091C95.3406 32.6174 95.3905 32.636 95.4353 32.6636C95.4802 32.6912 95.5191 32.7274 95.55 32.7701C95.5809 32.8127 95.603 32.8611 95.6152 32.9123C95.6274 32.9636 95.6293 33.0167 95.621 33.0687C95.6126 33.1207 95.5941 33.1706 95.5665 33.2154C95.5389 33.2602 95.5027 33.2992 95.46 33.3301C94.296 34.2188 92.9144 34.7783 91.46 34.9501H91.49Z" fill="#736A6A"/>
<path d="M130.03 0C117.71 0.59 93.35 11.95 101.63 40.52C118.47 38.97 129.59 24.64 130.03 0Z" fill="#736A6A"/>
<path opacity="0.3" d="M130.03 0C117.71 0.59 93.35 11.95 101.63 40.52C118.47 38.97 129.59 24.64 130.03 0Z" fill="black"/>
<path d="M126.85 3.86003C124.083 6.91652 121.593 10.2128 119.41 13.71C117.1 17.18 114.87 20.71 112.68 24.27C110.49 27.83 108.39 31.43 106.26 35.02L99.78 45.7C99.7421 45.762 99.6924 45.8158 99.6336 45.8584C99.5748 45.9011 99.5082 45.9316 99.4375 45.9483C99.3669 45.9651 99.2936 45.9677 99.2219 45.9559C99.1503 45.9442 99.0816 45.9184 99.02 45.88C98.9166 45.8183 98.8368 45.7237 98.7933 45.6113C98.7498 45.499 98.7451 45.3753 98.78 45.26C100.074 41.2143 101.79 37.3162 103.9 33.63C105.9 29.94 108.16 26.36 110.42 22.81C112.68 19.26 115.1 15.81 117.64 12.42C118.91 10.73 120.22 9.07002 121.64 7.48002C123.021 5.83479 124.558 4.3277 126.23 2.98002C126.286 2.93643 126.351 2.90442 126.42 2.88585C126.488 2.86727 126.56 2.86251 126.631 2.87181C126.701 2.8811 126.77 2.90427 126.831 2.94001C126.893 2.97575 126.947 3.02334 126.99 3.08003C127.077 3.18 127.124 3.30782 127.124 3.44005C127.124 3.57227 127.077 3.70006 126.99 3.80003L126.85 3.86003Z" fill="#736A6A"/>
<path d="M121.03 13.8099C120.145 13.806 119.262 13.7291 118.39 13.5799C118.32 13.5681 118.253 13.5426 118.192 13.5047C118.132 13.4669 118.079 13.4176 118.038 13.3596C117.997 13.3015 117.967 13.2359 117.951 13.1665C117.935 13.0971 117.933 13.0252 117.945 12.9549C117.957 12.8847 117.982 12.8174 118.02 12.757C118.058 12.6967 118.107 12.6443 118.165 12.603C118.223 12.5617 118.289 12.5322 118.358 12.5162C118.428 12.5002 118.5 12.4981 118.57 12.5099C120.891 12.9935 123.305 12.7599 125.49 11.8399C125.556 11.8058 125.627 11.7849 125.701 11.7785C125.775 11.7721 125.849 11.7802 125.92 11.8025C125.99 11.8248 126.056 11.8608 126.112 11.9084C126.169 11.956 126.216 12.0143 126.25 12.0799C126.284 12.1456 126.305 12.2173 126.311 12.2911C126.318 12.3648 126.31 12.4391 126.287 12.5096C126.265 12.5802 126.229 12.6457 126.182 12.7024C126.134 12.759 126.076 12.8058 126.01 12.8399C124.445 13.5366 122.742 13.8683 121.03 13.8099V13.8099Z" fill="#736A6A"/>
<path d="M113.13 21.5399C113.034 21.5381 112.941 21.5105 112.86 21.4599C109.06 19.2799 108.46 12.3899 108.43 12.0999C108.419 11.9556 108.465 11.8127 108.559 11.7022C108.652 11.5918 108.786 11.5227 108.93 11.5099C109.074 11.4988 109.217 11.5451 109.328 11.6387C109.438 11.7323 109.507 11.8657 109.52 12.0099C109.52 12.0799 110.1 18.6199 113.4 20.5199C113.462 20.5552 113.516 20.6024 113.56 20.6587C113.603 20.7151 113.636 20.7795 113.654 20.8483C113.673 20.9171 113.677 20.9889 113.668 21.0595C113.659 21.1302 113.636 21.1983 113.6 21.2599C113.555 21.3449 113.487 21.4159 113.404 21.4653C113.321 21.5146 113.226 21.5404 113.13 21.5399V21.5399Z" fill="#736A6A"/>
<path d="M112 29.65C110.719 29.6698 109.453 29.3672 108.32 28.77C108.255 28.7375 108.198 28.6921 108.152 28.6366C108.105 28.5812 108.071 28.5168 108.05 28.4475C108.029 28.3782 108.023 28.3054 108.032 28.2336C108.04 28.1618 108.064 28.0925 108.1 28.03C108.134 27.9664 108.179 27.9101 108.235 27.8645C108.291 27.8188 108.355 27.7848 108.424 27.7643C108.493 27.7438 108.565 27.7373 108.636 27.7451C108.708 27.753 108.777 27.775 108.84 27.81C113.01 30.06 118.7 26.48 118.75 26.44C118.811 26.4011 118.879 26.3747 118.95 26.3622C119.022 26.3498 119.095 26.3515 119.165 26.3673C119.236 26.3831 119.303 26.4126 119.362 26.4543C119.421 26.4959 119.471 26.5488 119.51 26.6099C119.549 26.6702 119.575 26.7375 119.587 26.808C119.599 26.8785 119.598 26.9507 119.582 27.0205C119.566 27.0903 119.537 27.1562 119.495 27.2145C119.453 27.2728 119.401 27.3222 119.34 27.3599C117.126 28.7304 114.601 29.5182 112 29.65Z" fill="#736A6A"/>
<path d="M104.96 34.99C104.873 34.9905 104.788 34.9698 104.711 34.9297C104.635 34.8896 104.569 34.8313 104.52 34.76C103.317 33.1813 102.558 31.3102 102.32 29.34C102.315 29.1957 102.366 29.0551 102.463 28.9485C102.561 28.8419 102.696 28.7777 102.84 28.77C102.911 28.7645 102.983 28.7735 103.051 28.7965C103.118 28.8194 103.18 28.8558 103.234 28.9035C103.287 28.9511 103.33 29.009 103.36 29.0737C103.391 29.1384 103.408 29.2086 103.41 29.28C103.646 31.0394 104.335 32.7073 105.41 34.12C105.453 34.1776 105.483 34.243 105.5 34.3126C105.517 34.3821 105.52 34.4544 105.509 34.5251C105.498 34.5958 105.473 34.6636 105.435 34.7245C105.398 34.7855 105.348 34.8383 105.29 34.88C105.194 34.9508 105.079 34.9893 104.96 34.99V34.99Z" fill="#736A6A"/>
<path d="M114.63 52.44C105.22 62.44 79.27 54.62 80.63 35.53C94.72 41.21 114.63 52.44 114.63 52.44Z" fill="#736A6A"/>
<path opacity="0.2" d="M110.89 50.37C103.29 57.21 84.64 51.37 85.02 37.37C94.52 41.59 105.32 47.34 110.89 50.37Z" fill="white"/>
<path d="M0.9 109C0.74 109 0.59 108.94 0.45 108.82C0.33 108.68 0.27 108.53 0.27 108.37C0.27 108.25 0.28 108.16 0.3 108.1L7.35 88.84C7.41 88.6 7.54 88.4 7.74 88.24C7.94 88.08 8.2 88 8.52 88H12.96C13.28 88 13.54 88.08 13.74 88.24C13.94 88.4 14.07 88.6 14.13 88.84L21.15 108.1L21.21 108.37C21.21 108.53 21.14 108.68 21 108.82C20.88 108.94 20.73 109 20.55 109H16.86C16.38 109 16.06 108.79 15.9 108.37L14.73 105.31H6.72L5.58 108.37C5.42 108.79 5.09 109 4.59 109H0.9ZM13.53 100.99L10.74 93.07L7.95 100.99H13.53ZM23.9946 109C23.7746 109 23.5946 108.93 23.4546 108.79C23.3146 108.65 23.2446 108.47 23.2446 108.25V94.15C23.2446 93.93 23.3146 93.75 23.4546 93.61C23.5946 93.47 23.7746 93.4 23.9946 93.4H27.2646C27.4846 93.4 27.6646 93.47 27.8046 93.61C27.9446 93.75 28.0146 93.93 28.0146 94.15V95.17C28.4746 94.57 29.0846 94.08 29.8446 93.7C30.6246 93.3 31.4946 93.1 32.4546 93.1C34.6546 93.1 36.1746 93.96 37.0146 95.68C37.4946 94.92 38.1646 94.3 39.0246 93.82C39.8846 93.34 40.8046 93.1 41.7846 93.1C43.4246 93.1 44.7546 93.66 45.7746 94.78C46.8146 95.88 47.3346 97.53 47.3346 99.73V108.25C47.3346 108.45 47.2646 108.63 47.1246 108.79C46.9846 108.93 46.8046 109 46.5846 109H43.1046C42.8846 109 42.6946 108.93 42.5346 108.79C42.3946 108.65 42.3246 108.47 42.3246 108.25V99.94C42.3246 98.94 42.1146 98.22 41.6946 97.78C41.2946 97.34 40.7446 97.12 40.0446 97.12C39.4046 97.12 38.8746 97.35 38.4546 97.81C38.0346 98.25 37.8246 98.96 37.8246 99.94V108.25C37.8246 108.45 37.7546 108.63 37.6146 108.79C37.4746 108.93 37.2946 109 37.0746 109H33.5946C33.3746 109 33.1946 108.93 33.0546 108.79C32.9146 108.65 32.8446 108.47 32.8446 108.25V99.94C32.8446 98.96 32.6246 98.25 32.1846 97.81C31.7646 97.35 31.2246 97.12 30.5646 97.12C29.9246 97.12 29.3846 97.35 28.9446 97.81C28.5246 98.25 28.3146 98.95 28.3146 99.91V108.25C28.3146 108.45 28.2446 108.63 28.1046 108.79C27.9646 108.93 27.7846 109 27.5646 109H23.9946ZM51.4451 91.15C51.2251 91.15 51.0451 91.08 50.9051 90.94C50.7651 90.8 50.6951 90.62 50.6951 90.4V87.7C50.6951 87.48 50.7651 87.3 50.9051 87.16C51.0451 87.02 51.2251 86.95 51.4451 86.95H55.0451C55.2651 86.95 55.4451 87.02 55.5851 87.16C55.7251 87.3 55.7951 87.48 55.7951 87.7V90.4C55.7951 90.62 55.7251 90.8 55.5851 90.94C55.4451 91.08 55.2651 91.15 55.0451 91.15H51.4451ZM51.4751 109C51.2551 109 51.0751 108.93 50.9351 108.79C50.7951 108.65 50.7251 108.47 50.7251 108.25V94.15C50.7251 93.93 50.7951 93.75 50.9351 93.61C51.0751 93.47 51.2551 93.4 51.4751 93.4H55.0151C55.2351 93.4 55.4151 93.47 55.5551 93.61C55.6951 93.75 55.7651 93.93 55.7651 94.15V108.25C55.7651 108.45 55.6951 108.63 55.5551 108.79C55.4151 108.93 55.2351 109 55.0151 109H51.4751ZM61.8291 109C61.6291 109 61.4491 108.93 61.2891 108.79C61.1491 108.63 61.0791 108.45 61.0791 108.25V97.33H58.7991C58.5791 97.33 58.3991 97.26 58.2591 97.12C58.1191 96.98 58.0491 96.8 58.0491 96.58V94.15C58.0491 93.93 58.1191 93.75 58.2591 93.61C58.3991 93.47 58.5791 93.4 58.7991 93.4H61.0791V92.44C61.0791 90.46 61.6391 89.03 62.7591 88.15C63.8991 87.25 65.5291 86.8 67.6491 86.8H69.9891C70.2091 86.8 70.3891 86.87 70.5291 87.01C70.6691 87.15 70.7391 87.33 70.7391 87.55V89.98C70.7391 90.18 70.6691 90.36 70.5291 90.52C70.3891 90.66 70.2091 90.73 69.9891 90.73H67.8891C67.2291 90.73 66.7591 90.89 66.4791 91.21C66.1991 91.51 66.0591 91.97 66.0591 92.59V93.4H69.6891C69.9091 93.4 70.0891 93.47 70.2291 93.61C70.3691 93.75 70.4391 93.93 70.4391 94.15V96.58C70.4391 96.78 70.3691 96.96 70.2291 97.12C70.0891 97.26 69.9091 97.33 69.6891 97.33H66.0591V108.25C66.0591 108.45 65.9891 108.63 65.8491 108.79C65.7091 108.93 65.5291 109 65.3091 109H61.8291ZM79.7848 109.3C77.3048 109.3 75.3948 108.71 74.0548 107.53C72.7148 106.35 71.9848 104.69 71.8648 102.55C71.8448 102.29 71.8348 101.84 71.8348 101.2C71.8348 100.56 71.8448 100.11 71.8648 99.85C71.9848 97.73 72.7348 96.08 74.1148 94.9C75.4948 93.7 77.3848 93.1 79.7848 93.1C82.2048 93.1 84.1048 93.7 85.4848 94.9C86.8648 96.08 87.6148 97.73 87.7348 99.85C87.7548 100.11 87.7648 100.56 87.7648 101.2C87.7648 101.84 87.7548 102.29 87.7348 102.55C87.6148 104.69 86.8848 106.35 85.5448 107.53C84.2048 108.71 82.2848 109.3 79.7848 109.3ZM79.7848 105.64C80.6648 105.64 81.3148 105.38 81.7348 104.86C82.1548 104.32 82.3948 103.5 82.4548 102.4C82.4748 102.2 82.4848 101.8 82.4848 101.2C82.4848 100.6 82.4748 100.2 82.4548 100C82.3948 98.92 82.1448 98.11 81.7048 97.57C81.2848 97.03 80.6448 96.76 79.7848 96.76C78.1248 96.76 77.2448 97.84 77.1448 100L77.1148 101.2L77.1448 102.4C77.1848 103.5 77.4148 104.32 77.8348 104.86C78.2748 105.38 78.9248 105.64 79.7848 105.64ZM98.1246 109.3C95.6446 109.3 93.7346 108.71 92.3946 107.53C91.0546 106.35 90.3246 104.69 90.2046 102.55C90.1846 102.29 90.1746 101.84 90.1746 101.2C90.1746 100.56 90.1846 100.11 90.2046 99.85C90.3246 97.73 91.0746 96.08 92.4546 94.9C93.8346 93.7 95.7246 93.1 98.1246 93.1C100.545 93.1 102.445 93.7 103.825 94.9C105.205 96.08 105.955 97.73 106.075 99.85C106.095 100.11 106.105 100.56 106.105 101.2C106.105 101.84 106.095 102.29 106.075 102.55C105.955 104.69 105.225 106.35 103.885 107.53C102.545 108.71 100.625 109.3 98.1246 109.3ZM98.1246 105.64C99.0046 105.64 99.6546 105.38 100.075 104.86C100.495 104.32 100.735 103.5 100.795 102.4C100.815 102.2 100.825 101.8 100.825 101.2C100.825 100.6 100.815 100.2 100.795 100C100.735 98.92 100.485 98.11 100.045 97.57C99.6246 97.03 98.9846 96.76 98.1246 96.76C96.4646 96.76 95.5846 97.84 95.4846 100L95.4546 101.2L95.4846 102.4C95.5246 103.5 95.7546 104.32 96.1746 104.86C96.6146 105.38 97.2646 105.64 98.1246 105.64ZM114.904 109.3C112.944 109.3 111.414 108.69 110.314 107.47C109.234 106.23 108.644 104.49 108.544 102.25L108.514 101.2L108.544 100.12C108.624 97.96 109.214 96.25 110.314 94.99C111.434 93.73 112.964 93.1 114.904 93.1C116.724 93.1 118.194 93.69 119.314 94.87V88.45C119.314 88.23 119.384 88.05 119.524 87.91C119.664 87.77 119.844 87.7 120.064 87.7H123.724C123.944 87.7 124.124 87.77 124.264 87.91C124.404 88.05 124.474 88.23 124.474 88.45V108.25C124.474 108.45 124.404 108.63 124.264 108.79C124.124 108.93 123.944 109 123.724 109H120.334C120.134 109 119.954 108.93 119.794 108.79C119.654 108.63 119.584 108.45 119.584 108.25V107.29C118.484 108.63 116.924 109.3 114.904 109.3ZM116.554 105.28C117.454 105.28 118.124 105 118.564 104.44C119.004 103.86 119.254 103.12 119.314 102.22C119.334 101.96 119.344 101.58 119.344 101.08C119.344 100.6 119.334 100.23 119.314 99.97C119.274 99.15 119.024 98.47 118.564 97.93C118.104 97.39 117.434 97.12 116.554 97.12C115.614 97.12 114.934 97.4 114.514 97.96C114.114 98.52 113.884 99.29 113.824 100.27C113.804 100.47 113.794 100.78 113.794 101.2C113.794 101.62 113.804 101.93 113.824 102.13C113.884 103.11 114.114 103.88 114.514 104.44C114.934 105 115.614 105.28 116.554 105.28Z" fill="#F03E3E"/>
<path d="M88.752 134.18C87.504 134.18 86.562 133.772 85.926 132.956C85.29 132.14 84.954 131.108 84.918 129.86L84.9 129.32L84.918 128.78C84.954 127.544 85.29 126.518 85.926 125.702C86.562 124.874 87.504 124.46 88.752 124.46C89.988 124.46 90.96 124.898 91.668 125.774V121.634C91.668 121.514 91.704 121.418 91.776 121.346C91.86 121.262 91.962 121.22 92.082 121.22H92.946C93.066 121.22 93.162 121.262 93.234 121.346C93.318 121.418 93.36 121.514 93.36 121.634V133.586C93.36 133.706 93.318 133.808 93.234 133.892C93.162 133.964 93.066 134 92.946 134H92.136C92.016 134 91.914 133.964 91.83 133.892C91.758 133.808 91.722 133.706 91.722 133.586V132.83C91.026 133.73 90.036 134.18 88.752 134.18ZM89.13 132.722C89.958 132.722 90.576 132.452 90.984 131.912C91.404 131.36 91.632 130.706 91.668 129.95C91.68 129.818 91.686 129.59 91.686 129.266C91.686 128.93 91.68 128.696 91.668 128.564C91.644 127.856 91.416 127.238 90.984 126.71C90.552 126.182 89.934 125.918 89.13 125.918C88.278 125.918 87.654 126.182 87.258 126.71C86.874 127.238 86.664 127.934 86.628 128.798L86.61 129.32C86.61 131.588 87.45 132.722 89.13 132.722ZM99.7811 134.18C98.5451 134.18 97.5551 133.802 96.8111 133.046C96.0791 132.278 95.6771 131.234 95.6051 129.914L95.5871 129.302L95.6051 128.708C95.6891 127.412 96.0971 126.38 96.8291 125.612C97.5731 124.844 98.5511 124.46 99.7631 124.46C101.095 124.46 102.127 124.886 102.859 125.738C103.591 126.578 103.957 127.718 103.957 129.158V129.464C103.957 129.584 103.915 129.686 103.831 129.77C103.759 129.842 103.663 129.878 103.543 129.878H97.3151V130.04C97.3511 130.82 97.5851 131.486 98.0171 132.038C98.4611 132.578 99.0431 132.848 99.7631 132.848C100.315 132.848 100.765 132.74 101.113 132.524C101.473 132.296 101.737 132.062 101.905 131.822C102.013 131.678 102.091 131.594 102.139 131.57C102.199 131.534 102.301 131.516 102.445 131.516H103.327C103.435 131.516 103.525 131.546 103.597 131.606C103.669 131.666 103.705 131.75 103.705 131.858C103.705 132.122 103.537 132.44 103.201 132.812C102.877 133.184 102.415 133.508 101.815 133.784C101.227 134.048 100.549 134.18 99.7811 134.18ZM102.247 128.636V128.582C102.247 127.754 102.019 127.082 101.563 126.566C101.119 126.038 100.519 125.774 99.7631 125.774C99.0071 125.774 98.4071 126.038 97.9631 126.566C97.5311 127.082 97.3151 127.754 97.3151 128.582V128.636H102.247ZM106.541 134C106.421 134 106.319 133.964 106.235 133.892C106.163 133.808 106.127 133.706 106.127 133.586V121.634C106.127 121.514 106.163 121.418 106.235 121.346C106.319 121.262 106.421 121.22 106.541 121.22H107.387C107.507 121.22 107.603 121.262 107.675 121.346C107.759 121.418 107.801 121.514 107.801 121.634V133.586C107.801 133.706 107.759 133.808 107.675 133.892C107.603 133.964 107.507 134 107.387 134H106.541ZM110.756 122.894C110.636 122.894 110.534 122.858 110.45 122.786C110.378 122.702 110.342 122.6 110.342 122.48V121.508C110.342 121.388 110.378 121.286 110.45 121.202C110.534 121.118 110.636 121.076 110.756 121.076H111.89C112.01 121.076 112.112 121.118 112.196 121.202C112.28 121.286 112.322 121.388 112.322 121.508V122.48C112.322 122.6 112.28 122.702 112.196 122.786C112.112 122.858 112.01 122.894 111.89 122.894H110.756ZM110.9 134C110.78 134 110.678 133.964 110.594 133.892C110.522 133.808 110.486 133.706 110.486 133.586V125.054C110.486 124.934 110.522 124.838 110.594 124.766C110.678 124.682 110.78 124.64 110.9 124.64H111.764C111.884 124.64 111.98 124.682 112.052 124.766C112.136 124.838 112.178 124.934 112.178 125.054V133.586C112.178 133.706 112.136 133.808 112.052 133.892C111.98 133.964 111.884 134 111.764 134H110.9ZM118.104 134C117.792 134 117.57 133.85 117.438 133.55L114.108 125.198L114.072 125.018C114.072 124.91 114.108 124.82 114.18 124.748C114.252 124.676 114.342 124.64 114.45 124.64H115.314C115.518 124.64 115.668 124.742 115.764 124.946L118.5 132.038L121.236 124.946C121.344 124.742 121.488 124.64 121.668 124.64H122.55C122.646 124.64 122.73 124.676 122.802 124.748C122.886 124.82 122.928 124.91 122.928 125.018L122.892 125.198L119.544 133.55C119.412 133.85 119.19 134 118.878 134H118.104ZM128.222 134.18C126.986 134.18 125.996 133.802 125.252 133.046C124.52 132.278 124.118 131.234 124.046 129.914L124.028 129.302L124.046 128.708C124.13 127.412 124.538 126.38 125.27 125.612C126.014 124.844 126.992 124.46 128.204 124.46C129.536 124.46 130.568 124.886 131.3 125.738C132.032 126.578 132.398 127.718 132.398 129.158V129.464C132.398 129.584 132.356 129.686 132.272 129.77C132.2 129.842 132.104 129.878 131.984 129.878H125.756V130.04C125.792 130.82 126.026 131.486 126.458 132.038C126.902 132.578 127.484 132.848 128.204 132.848C128.756 132.848 129.206 132.74 129.554 132.524C129.914 132.296 130.178 132.062 130.346 131.822C130.454 131.678 130.532 131.594 130.58 131.57C130.64 131.534 130.742 131.516 130.886 131.516H131.768C131.876 131.516 131.966 131.546 132.038 131.606C132.11 131.666 132.146 131.75 132.146 131.858C132.146 132.122 131.978 132.44 131.642 132.812C131.318 133.184 130.856 133.508 130.256 133.784C129.668 134.048 128.99 134.18 128.222 134.18ZM130.688 128.636V128.582C130.688 127.754 130.46 127.082 130.004 126.566C129.56 126.038 128.96 125.774 128.204 125.774C127.448 125.774 126.848 126.038 126.404 126.566C125.972 127.082 125.756 127.754 125.756 128.582V128.636H130.688ZM134.965 134C134.845 134 134.743 133.964 134.659 133.892C134.587 133.808 134.551 133.706 134.551 133.586V125.072C134.551 124.952 134.587 124.85 134.659 124.766C134.743 124.682 134.845 124.64 134.965 124.64H135.793C135.913 124.64 136.015 124.682 136.099 124.766C136.183 124.85 136.225 124.952 136.225 125.072V125.864C136.717 125.048 137.557 124.64 138.745 124.64H139.447C139.567 124.64 139.663 124.682 139.735 124.766C139.819 124.838 139.861 124.934 139.861 125.054V125.792C139.861 125.912 139.819 126.008 139.735 126.08C139.663 126.152 139.567 126.188 139.447 126.188H138.367C137.719 126.188 137.209 126.38 136.837 126.764C136.465 127.136 136.279 127.646 136.279 128.294V133.586C136.279 133.706 136.237 133.808 136.153 133.892C136.069 133.964 135.967 134 135.847 134H134.965ZM143.027 137.42C142.931 137.42 142.847 137.384 142.775 137.312C142.703 137.24 142.667 137.156 142.667 137.06C142.667 136.976 142.697 136.868 142.757 136.736L144.143 133.442L140.705 125.324C140.645 125.168 140.615 125.066 140.615 125.018C140.615 124.91 140.651 124.82 140.723 124.748C140.795 124.676 140.885 124.64 140.993 124.64H141.875C142.067 124.64 142.211 124.742 142.307 124.946L145.043 131.498L147.851 124.946C147.947 124.742 148.097 124.64 148.301 124.64H149.147C149.255 124.64 149.345 124.676 149.417 124.748C149.489 124.82 149.525 124.904 149.525 125C149.525 125.036 149.495 125.144 149.435 125.324L144.323 137.114C144.227 137.318 144.077 137.42 143.873 137.42H143.027Z" fill="#D14242"/>
</svg>
